<?xml version="1.0" encoding="utf-8"?>
<!-- Generator: Adobe Illustrator 16.0.0, SVG Export Plug-In . SVG Version: 6.00 Build 0)  -->
<!DOCTYPE svg PUBLIC "-//W3C//DTD SVG 1.1//EN" "http://www.w3.org/Graphics/SVG/1.1/DTD/svg11.dtd">
<svg version="1.1" id="Layer_1" xmlns="http://www.w3.org/2000/svg" xmlns:xlink="http://www.w3.org/1999/xlink" x="0px" y="0px"
	 width="350px" height="83px" viewBox="0 0 350 83" enable-background="new 0 0 350 83" xml:space="preserve">
<path fill="#B30909" d="M79.416,44.271c0.441,0,0.851-0.06,1.226-0.177c0.375-0.116,0.695-0.284,0.964-0.502
	c0.268-0.218,0.478-0.477,0.628-0.778c0.149-0.301,0.226-0.635,0.226-1.003c0-0.435-0.102-0.803-0.306-1.104
	c-0.205-0.301-0.473-0.565-0.804-0.793s-0.712-0.43-1.141-0.607c-0.429-0.177-0.862-0.358-1.306-0.542
	c-0.441-0.184-0.877-0.383-1.306-0.598c-0.429-0.214-0.809-0.475-1.141-0.783c-0.331-0.308-0.599-0.671-0.803-1.089
	s-0.307-0.926-0.307-1.521c0-0.629,0.119-1.195,0.36-1.697s0.578-0.929,1.01-1.28c0.433-0.351,0.943-0.619,1.536-0.803
	c0.594-0.184,1.243-0.276,1.953-0.276c0.436,0,0.98,0.042,1.638,0.125c0.655,0.083,1.353,0.236,2.089,0.457l-0.332,1.748l-0.2,0.1
	c-0.368-0.167-0.728-0.308-1.074-0.421c-0.349-0.114-0.677-0.204-0.984-0.271c-0.309-0.066-0.593-0.114-0.854-0.14
	c-0.262-0.027-0.489-0.041-0.683-0.041c-0.396,0-0.752,0.049-1.07,0.146c-0.317,0.097-0.589,0.238-0.813,0.422
	c-0.225,0.184-0.397,0.409-0.521,0.673c-0.124,0.265-0.187,0.564-0.187,0.899c0,0.448,0.103,0.83,0.307,1.145
	s0.476,0.592,0.813,0.833c0.337,0.241,0.723,0.456,1.15,0.643c0.428,0.188,0.864,0.375,1.31,0.563
	c0.446,0.188,0.884,0.388,1.312,0.603c0.429,0.214,0.812,0.463,1.149,0.748c0.338,0.285,0.608,0.621,0.813,1.009
	c0.204,0.388,0.306,0.854,0.306,1.396c0,0.596-0.129,1.165-0.387,1.702c-0.258,0.539-0.619,1.014-1.084,1.426
	c-0.466,0.412-1.024,0.74-1.677,0.984c-0.653,0.244-1.375,0.366-2.164,0.366c-0.335,0-0.686-0.022-1.05-0.069
	c-0.365-0.048-0.731-0.113-1.101-0.197c-0.368-0.082-0.73-0.186-1.089-0.306s-0.698-0.254-1.02-0.401l0.341-1.758l0.201-0.101
	c0.683,0.396,1.374,0.707,2.072,0.935C78.122,44.157,78.786,44.271,79.416,44.271z"/>
<path fill="#B30909" d="M90.549,45.827c-0.79,0-1.491-0.142-2.107-0.421c-0.616-0.281-1.137-0.66-1.563-1.135
	c-0.425-0.477-0.75-1.029-0.974-1.662c-0.225-0.632-0.337-1.3-0.337-2.003c0-0.803,0.143-1.558,0.427-2.264s0.68-1.324,1.186-1.853
	c0.506-0.529,1.105-0.946,1.803-1.25c0.696-0.304,1.453-0.457,2.27-0.457c0.797,0,1.506,0.142,2.129,0.427
	c0.622,0.284,1.146,0.667,1.571,1.149s0.748,1.04,0.969,1.672c0.223,0.633,0.332,1.297,0.332,1.994c0,0.81-0.145,1.568-0.432,2.274
	c-0.288,0.706-0.687,1.32-1.195,1.843c-0.509,0.521-1.11,0.934-1.808,1.234S91.366,45.827,90.549,45.827z M90.971,44.3
	c0.487,0,0.933-0.099,1.331-0.296c0.396-0.197,0.738-0.467,1.022-0.809c0.285-0.342,0.506-0.745,0.663-1.21
	c0.157-0.465,0.236-0.965,0.236-1.501c0-0.529-0.077-1.043-0.231-1.542S93.617,38,93.325,37.608
	c-0.291-0.392-0.646-0.707-1.069-0.944c-0.422-0.238-0.896-0.357-1.426-0.357c-0.488,0-0.933,0.099-1.33,0.296
	c-0.397,0.198-0.74,0.469-1.023,0.813c-0.285,0.345-0.506,0.751-0.663,1.22c-0.157,0.468-0.235,0.971-0.235,1.506
	c0,0.529,0.076,1.043,0.23,1.542c0.153,0.5,0.377,0.942,0.668,1.332c0.291,0.389,0.646,0.699,1.063,0.934S90.436,44.3,90.971,44.3z"
	/>
<path fill="#B30909" d="M97.727,34.982h1.906v6.748c0,0.368,0.053,0.706,0.156,1.009c0.104,0.305,0.247,0.567,0.433,0.788
	c0.184,0.222,0.404,0.393,0.662,0.513s0.544,0.181,0.858,0.181c0.274,0,0.544-0.047,0.809-0.141s0.52-0.216,0.764-0.367
	c0.244-0.15,0.476-0.324,0.692-0.521c0.218-0.197,0.421-0.403,0.607-0.618v-7.591h1.907v10.644h-1.486l-0.321-1.828
	c-0.247,0.228-0.512,0.46-0.793,0.698c-0.28,0.238-0.581,0.456-0.897,0.652c-0.318,0.199-0.654,0.36-1.01,0.487
	c-0.354,0.128-0.727,0.19-1.114,0.19c-0.455,0-0.875-0.09-1.26-0.271c-0.387-0.181-0.721-0.437-1.006-0.768
	c-0.283-0.332-0.507-0.729-0.667-1.195c-0.16-0.465-0.24-0.979-0.24-1.542V34.982z"/>
<path fill="#B30909" d="M109.593,36.508h-2.147l0.16-0.984c0.521-0.107,0.939-0.242,1.255-0.407c0.314-0.164,0.574-0.37,0.778-0.617
	c0.203-0.247,0.375-0.547,0.513-0.899c0.137-0.352,0.293-0.771,0.467-1.26h0.884v2.641h3.855l-0.401,1.526h-3.454v5.944
	c0,0.321,0.048,0.594,0.146,0.817c0.097,0.226,0.231,0.407,0.406,0.547c0.174,0.141,0.385,0.244,0.633,0.307
	c0.248,0.064,0.521,0.096,0.823,0.096c0.308,0,0.613-0.027,0.919-0.085c0.305-0.057,0.594-0.136,0.868-0.235v1.084
	c-0.422,0.273-0.865,0.482-1.331,0.627c-0.465,0.144-0.938,0.216-1.421,0.216c-0.447,0-0.854-0.063-1.215-0.19
	c-0.36-0.127-0.671-0.312-0.929-0.553s-0.457-0.541-0.598-0.898c-0.142-0.356-0.211-0.768-0.211-1.229L109.593,36.508
	L109.593,36.508z"/>
<path fill="#B30909" d="M116.83,29.54h1.907v7.169c0.241-0.214,0.509-0.435,0.804-0.663s0.612-0.435,0.954-0.623
	s0.699-0.341,1.074-0.462s0.764-0.181,1.165-0.181c0.48,0,0.919,0.092,1.311,0.276c0.393,0.184,0.729,0.442,1.01,0.773
	c0.28,0.331,0.496,0.729,0.646,1.195c0.151,0.465,0.228,0.982,0.228,1.551v7.049h-1.908v-6.889c0-0.388-0.056-0.729-0.166-1.024
	s-0.262-0.541-0.451-0.738c-0.191-0.197-0.421-0.345-0.688-0.442c-0.268-0.097-0.556-0.146-0.862-0.146
	c-0.563,0-1.096,0.147-1.598,0.442s-1.008,0.683-1.517,1.165v7.632h-1.907L116.83,29.54L116.83,29.54z"/>
<path fill="#B30909" d="M139.811,41.629h-6.348l-1.375,3.997h-1.857l5.473-14.711h2.089l5.482,14.711h-2.068L139.811,41.629z
	 M139.258,40.093l-1.946-5.744l-0.573-2.048h-0.2l-0.572,2.048l-1.969,5.744H139.258z"/>
<path fill="#B30909" d="M145.371,36.508h-2.147l0.159-1.084l1.988-0.442V34.46c0-0.689,0.105-1.345,0.316-1.968
	s0.514-1.167,0.909-1.632c0.395-0.465,0.88-0.835,1.454-1.11c0.576-0.274,1.232-0.412,1.97-0.412c0.273,0,0.563,0.02,0.862,0.061
	c0.303,0.04,0.594,0.107,0.874,0.201l-0.382,1.546l-0.201,0.101c-0.221-0.114-0.46-0.206-0.718-0.276
	c-0.258-0.07-0.534-0.105-0.828-0.105c-0.422,0-0.781,0.082-1.08,0.246c-0.298,0.164-0.54,0.387-0.728,0.668
	c-0.188,0.281-0.325,0.612-0.412,0.994c-0.087,0.381-0.13,0.79-0.13,1.225v0.984h3.635l-0.4,1.526h-3.233v9.118h-1.908V36.508
	L145.371,36.508z"/>
<path fill="#B30909" d="M151.645,34.982h1.485l0.302,3.193c0.087-0.167,0.179-0.34,0.275-0.518c0.098-0.177,0.194-0.35,0.291-0.517
	c0.098-0.167,0.192-0.324,0.286-0.472s0.178-0.274,0.251-0.382c0.147-0.207,0.313-0.403,0.497-0.587
	c0.185-0.184,0.383-0.345,0.598-0.482c0.215-0.137,0.441-0.244,0.684-0.321c0.241-0.077,0.499-0.115,0.772-0.115
	c0.194,0,0.378,0.021,0.553,0.065c0.175,0.044,0.317,0.116,0.433,0.216l-0.201,1.788c-0.12-0.033-0.239-0.055-0.355-0.065
	c-0.117-0.01-0.232-0.015-0.348-0.015c-0.476,0-0.889,0.077-1.239,0.231c-0.353,0.154-0.666,0.363-0.943,0.628
	c-0.278,0.265-0.529,0.574-0.753,0.929c-0.226,0.355-0.451,0.736-0.679,1.145v5.924h-1.907L151.645,34.982L151.645,34.982z"/>
<path fill="#B30909" d="M159.997,32.672c-0.168,0-0.325-0.03-0.473-0.09c-0.147-0.061-0.274-0.144-0.381-0.251
	c-0.107-0.107-0.191-0.233-0.251-0.377c-0.062-0.144-0.092-0.303-0.092-0.477c0-0.174,0.033-0.338,0.102-0.492
	c0.065-0.154,0.155-0.288,0.266-0.402s0.241-0.202,0.393-0.266c0.15-0.063,0.31-0.095,0.478-0.095c0.16,0,0.313,0.032,0.457,0.095
	c0.145,0.064,0.27,0.152,0.376,0.266c0.107,0.114,0.191,0.246,0.251,0.397c0.062,0.15,0.091,0.31,0.091,0.477
	c0,0.181-0.033,0.347-0.101,0.497c-0.067,0.151-0.155,0.278-0.267,0.382c-0.11,0.104-0.239,0.186-0.387,0.246
	C160.312,32.642,160.157,32.672,159.997,32.672z M159.032,34.982h1.908v10.644h-1.908V34.982z"/>
<path fill="#B30909" d="M170.558,44.723c-0.415,0.32-0.908,0.586-1.48,0.793s-1.197,0.311-1.873,0.311
	c-0.723,0-1.377-0.125-1.963-0.376s-1.086-0.601-1.501-1.05c-0.416-0.447-0.735-0.985-0.959-1.611
	c-0.225-0.625-0.337-1.31-0.337-2.053c0-0.864,0.146-1.66,0.442-2.39c0.294-0.729,0.696-1.359,1.21-1.888
	c0.512-0.529,1.115-0.94,1.813-1.235c0.695-0.294,1.442-0.441,2.239-0.441c0.187,0,0.39,0.008,0.606,0.025
	c0.218,0.017,0.434,0.045,0.647,0.085s0.422,0.089,0.622,0.146c0.201,0.057,0.379,0.125,0.532,0.206l-0.401,1.667l-0.221,0.101
	c-0.135-0.101-0.286-0.194-0.457-0.281s-0.353-0.161-0.542-0.221c-0.191-0.061-0.39-0.109-0.594-0.146
	c-0.203-0.037-0.402-0.056-0.598-0.056c-0.448,0-0.872,0.089-1.27,0.266c-0.398,0.178-0.748,0.436-1.051,0.773
	c-0.301,0.338-0.539,0.753-0.713,1.245c-0.174,0.492-0.261,1.053-0.261,1.682c0,0.643,0.092,1.208,0.275,1.697
	c0.185,0.489,0.438,0.9,0.759,1.235s0.703,0.587,1.145,0.758s0.92,0.256,1.437,0.256c0.309,0,0.68-0.038,1.115-0.116
	c0.435-0.076,0.894-0.231,1.375-0.467v1.086H170.558z"/>
<path fill="#B30909" d="M177.976,44.04c-0.167,0.142-0.369,0.313-0.607,0.517c-0.237,0.204-0.505,0.4-0.803,0.588
	c-0.298,0.187-0.623,0.348-0.976,0.481c-0.352,0.134-0.725,0.201-1.118,0.201c-0.355,0-0.701-0.062-1.039-0.187
	c-0.339-0.123-0.639-0.308-0.899-0.552c-0.261-0.245-0.47-0.547-0.627-0.909c-0.158-0.361-0.236-0.777-0.236-1.244
	c0-0.289,0.035-0.58,0.105-0.875c0.07-0.293,0.188-0.577,0.355-0.848c0.167-0.271,0.388-0.526,0.657-0.763
	c0.271-0.238,0.606-0.445,1.005-0.623c0.397-0.178,0.868-0.316,1.41-0.417c0.543-0.101,1.165-0.15,1.868-0.15h0.903v-0.924
	c0-0.308-0.055-0.586-0.16-0.833c-0.107-0.248-0.256-0.46-0.447-0.638c-0.189-0.177-0.418-0.314-0.683-0.412
	c-0.266-0.098-0.559-0.146-0.879-0.146c-0.24,0-0.497,0.027-0.769,0.081c-0.271,0.054-0.543,0.13-0.813,0.231
	c-0.271,0.101-0.531,0.218-0.778,0.352c-0.248,0.134-0.466,0.281-0.652,0.442l-0.182-0.101l-0.401-1.466
	c0.39-0.214,0.765-0.39,1.125-0.527c0.361-0.137,0.708-0.246,1.039-0.327c0.331-0.08,0.647-0.135,0.949-0.166
	c0.301-0.03,0.589-0.045,0.863-0.045c1.252,0,2.181,0.259,2.787,0.778c0.604,0.519,0.907,1.297,0.907,2.335v5.242
	c0,0.087,0.008,0.192,0.021,0.316c0.013,0.124,0.045,0.243,0.095,0.356c0.051,0.113,0.124,0.211,0.223,0.291
	c0.097,0.08,0.229,0.12,0.396,0.12c0.094,0,0.217-0.015,0.371-0.045s0.308-0.082,0.462-0.155v1.064
	c-0.321,0.221-0.645,0.4-0.969,0.538c-0.325,0.137-0.638,0.206-0.939,0.206c-0.273,0-0.5-0.055-0.678-0.166
	c-0.177-0.11-0.324-0.252-0.441-0.428c-0.116-0.174-0.209-0.366-0.275-0.577C178.08,44.445,178.022,44.24,177.976,44.04z
	 M177.976,40.424h-0.764c-0.782,0-1.406,0.055-1.873,0.166c-0.465,0.11-0.819,0.257-1.063,0.441
	c-0.244,0.185-0.405,0.396-0.481,0.638c-0.077,0.241-0.115,0.492-0.115,0.753c0,0.281,0.041,0.532,0.12,0.753
	c0.08,0.222,0.192,0.41,0.337,0.567c0.145,0.156,0.315,0.275,0.518,0.355c0.201,0.082,0.418,0.121,0.652,0.121
	c0.181,0,0.366-0.021,0.558-0.064c0.19-0.043,0.395-0.121,0.612-0.231c0.217-0.11,0.447-0.259,0.692-0.446
	c0.244-0.188,0.515-0.429,0.809-0.724L177.976,40.424L177.976,40.424z"/>
<path fill="#B30909" d="M182.372,34.982h1.486l0.301,1.848c0.234-0.221,0.502-0.452,0.804-0.693
	c0.302-0.241,0.627-0.462,0.979-0.663c0.352-0.201,0.725-0.367,1.12-0.497c0.395-0.131,0.8-0.196,1.215-0.196
	c0.488,0,0.929,0.094,1.32,0.281c0.392,0.188,0.727,0.451,1.004,0.789s0.491,0.74,0.643,1.205c0.151,0.465,0.228,0.972,0.228,1.521
	v7.049h-1.908v-6.869c0-0.388-0.056-0.731-0.166-1.029c-0.11-0.297-0.264-0.545-0.456-0.743c-0.194-0.198-0.426-0.347-0.693-0.447
	s-0.559-0.15-0.874-0.15c-0.556,0-1.081,0.147-1.576,0.442c-0.494,0.295-1.001,0.683-1.517,1.165v7.632h-1.907V34.982H182.372z"/>
<path fill="#B30909" d="M197.169,45.626V30.915h1.969v6.256h7.912v-6.256h1.969v14.711h-1.969v-6.898h-7.912v6.898H197.169z"/>
<path fill="#B30909" d="M212.53,32.672c-0.168,0-0.325-0.03-0.473-0.09c-0.147-0.061-0.274-0.144-0.382-0.251
	c-0.106-0.107-0.19-0.233-0.251-0.377s-0.091-0.303-0.091-0.477c0-0.174,0.033-0.338,0.102-0.492
	c0.065-0.154,0.154-0.288,0.266-0.402c0.11-0.114,0.241-0.202,0.392-0.266c0.151-0.063,0.311-0.095,0.479-0.095
	c0.16,0,0.313,0.032,0.457,0.095c0.144,0.064,0.269,0.152,0.376,0.266s0.191,0.246,0.251,0.397c0.061,0.15,0.091,0.31,0.091,0.477
	c0,0.181-0.034,0.347-0.101,0.497c-0.067,0.151-0.155,0.278-0.268,0.382c-0.109,0.104-0.238,0.186-0.386,0.246
	C212.845,32.642,212.69,32.672,212.53,32.672z M211.565,34.982h1.908v10.644h-1.908V34.982z"/>
<path fill="#B30909" d="M215.379,43.537l0.182-0.12c0.255,0.142,0.521,0.267,0.804,0.376s0.559,0.203,0.834,0.275
	c0.274,0.074,0.543,0.132,0.808,0.172c0.266,0.04,0.512,0.06,0.738,0.06c0.314,0,0.604-0.036,0.863-0.11
	c0.262-0.073,0.483-0.176,0.668-0.311c0.185-0.134,0.328-0.294,0.432-0.482c0.104-0.188,0.156-0.395,0.156-0.623
	c0-0.287-0.081-0.526-0.241-0.717c-0.161-0.191-0.372-0.354-0.633-0.493c-0.261-0.137-0.559-0.256-0.894-0.356
	s-0.678-0.204-1.024-0.311s-0.689-0.228-1.024-0.362c-0.335-0.134-0.632-0.303-0.894-0.507c-0.261-0.204-0.472-0.452-0.633-0.743
	c-0.16-0.291-0.24-0.647-0.24-1.069c0-0.469,0.104-0.912,0.311-1.331c0.208-0.418,0.499-0.783,0.874-1.095
	c0.375-0.311,0.825-0.557,1.352-0.738c0.525-0.181,1.108-0.271,1.752-0.271c0.154,0,0.338,0.006,0.553,0.02
	c0.214,0.013,0.441,0.035,0.684,0.065c0.24,0.03,0.486,0.07,0.737,0.121c0.251,0.051,0.493,0.112,0.729,0.186l-0.401,1.566
	l-0.241,0.141c-0.188-0.101-0.394-0.188-0.616-0.261c-0.226-0.074-0.452-0.132-0.684-0.176c-0.23-0.043-0.457-0.077-0.678-0.101
	c-0.222-0.023-0.416-0.035-0.583-0.035c-0.308,0-0.587,0.034-0.838,0.101c-0.252,0.067-0.468,0.163-0.648,0.286
	c-0.181,0.124-0.32,0.275-0.422,0.452c-0.1,0.177-0.149,0.38-0.149,0.607c0,0.294,0.079,0.539,0.24,0.733
	c0.16,0.194,0.375,0.36,0.644,0.497c0.268,0.137,0.569,0.256,0.909,0.356c0.338,0.101,0.684,0.205,1.038,0.312
	s0.701,0.228,1.039,0.361c0.339,0.133,0.642,0.305,0.909,0.512c0.269,0.208,0.481,0.46,0.644,0.758
	c0.16,0.298,0.24,0.661,0.24,1.089c0,0.502-0.111,0.964-0.337,1.386c-0.225,0.423-0.531,0.787-0.924,1.095
	c-0.392,0.308-0.851,0.547-1.376,0.717c-0.524,0.172-1.089,0.257-1.69,0.257c-0.517,0-1.066-0.06-1.652-0.181
	s-1.156-0.289-1.712-0.502L215.379,43.537z"/>
<path fill="#B30909" d="M225.077,36.508h-2.147l0.159-0.984c0.522-0.107,0.94-0.242,1.256-0.407c0.314-0.164,0.573-0.37,0.777-0.617
	s0.375-0.547,0.514-0.899c0.137-0.352,0.293-0.771,0.467-1.26h0.884v2.641h3.854l-0.4,1.526h-3.454v5.944
	c0,0.321,0.048,0.594,0.146,0.817c0.098,0.226,0.232,0.407,0.406,0.547c0.174,0.141,0.385,0.244,0.633,0.307
	c0.248,0.064,0.522,0.096,0.823,0.096c0.309,0,0.614-0.027,0.919-0.085c0.305-0.057,0.594-0.136,0.869-0.235v1.084
	c-0.422,0.273-0.866,0.482-1.331,0.627c-0.465,0.144-0.938,0.216-1.421,0.216c-0.448,0-0.854-0.063-1.215-0.19
	c-0.361-0.127-0.671-0.312-0.929-0.553c-0.259-0.241-0.457-0.541-0.599-0.898c-0.141-0.356-0.211-0.768-0.211-1.229V36.508
	L225.077,36.508z"/>
<path fill="#B30909" d="M236.381,45.827c-0.79,0-1.491-0.142-2.107-0.421c-0.616-0.281-1.137-0.66-1.563-1.135
	c-0.425-0.477-0.75-1.029-0.974-1.662c-0.225-0.632-0.337-1.3-0.337-2.003c0-0.803,0.143-1.558,0.427-2.264s0.68-1.324,1.186-1.853
	c0.506-0.529,1.105-0.946,1.803-1.25c0.696-0.304,1.453-0.457,2.27-0.457c0.797,0,1.506,0.142,2.129,0.427
	c0.622,0.284,1.146,0.667,1.571,1.149s0.748,1.04,0.969,1.672c0.223,0.633,0.332,1.297,0.332,1.994c0,0.81-0.145,1.568-0.432,2.274
	c-0.288,0.706-0.688,1.32-1.195,1.843c-0.509,0.521-1.11,0.934-1.808,1.234S237.198,45.827,236.381,45.827z M236.803,44.3
	c0.487,0,0.933-0.099,1.33-0.296s0.739-0.467,1.023-0.809c0.285-0.342,0.506-0.745,0.663-1.21c0.157-0.465,0.236-0.965,0.236-1.501
	c0-0.529-0.077-1.043-0.231-1.542s-0.376-0.944-0.668-1.335c-0.291-0.392-0.647-0.707-1.069-0.944
	c-0.422-0.238-0.896-0.357-1.426-0.357c-0.488,0-0.933,0.099-1.33,0.296c-0.397,0.198-0.74,0.469-1.023,0.813
	c-0.285,0.345-0.507,0.751-0.663,1.22c-0.157,0.468-0.235,0.971-0.235,1.506c0,0.529,0.076,1.043,0.23,1.542
	c0.153,0.499,0.377,0.942,0.668,1.331s0.646,0.7,1.063,0.935C235.79,44.184,236.268,44.3,236.803,44.3z"/>
<path fill="#B30909" d="M243.559,34.982h1.485l0.302,3.193c0.087-0.167,0.179-0.34,0.275-0.518c0.098-0.177,0.194-0.35,0.291-0.517
	s0.192-0.324,0.286-0.472s0.178-0.274,0.251-0.382c0.147-0.207,0.313-0.403,0.497-0.587c0.185-0.184,0.383-0.345,0.598-0.482
	c0.214-0.137,0.441-0.244,0.684-0.321c0.241-0.077,0.499-0.115,0.772-0.115c0.194,0,0.378,0.021,0.553,0.065
	c0.175,0.044,0.317,0.116,0.433,0.216l-0.201,1.788c-0.12-0.033-0.239-0.055-0.355-0.065c-0.117-0.01-0.232-0.015-0.348-0.015
	c-0.476,0-0.889,0.077-1.24,0.231s-0.666,0.363-0.942,0.628c-0.278,0.265-0.529,0.574-0.753,0.929
	c-0.226,0.355-0.451,0.736-0.68,1.145v5.924h-1.906L243.559,34.982L243.559,34.982z"/>
<path fill="#B30909" d="M250.43,34.982h2.147l2.33,7.19l0.482,1.948h0.199l0.482-1.948l2.329-7.19h1.969l-5.985,16.026h-1.848
	l2.229-5.382h-0.361L250.43,34.982z"/>
<path fill="#B30909" d="M270.222,45.827c-0.938,0-1.834-0.167-2.69-0.502c-0.857-0.334-1.612-0.813-2.265-1.437
	c-0.653-0.623-1.172-1.377-1.558-2.264c-0.385-0.887-0.577-1.883-0.577-2.987c0-0.763,0.097-1.488,0.286-2.174
	c0.19-0.686,0.457-1.322,0.798-1.908c0.343-0.586,0.748-1.116,1.222-1.592c0.472-0.475,0.992-0.878,1.562-1.21
	c0.568-0.332,1.173-0.587,1.813-0.768c0.639-0.181,1.3-0.271,1.981-0.271c0.609,0,1.207,0.074,1.793,0.221s1.143,0.361,1.667,0.643
	c0.525,0.282,1.008,0.629,1.446,1.044s0.818,0.887,1.14,1.416c0.322,0.529,0.57,1.116,0.748,1.762
	c0.178,0.646,0.267,1.344,0.267,2.094c0,0.756-0.092,1.479-0.276,2.169c-0.184,0.689-0.445,1.327-0.783,1.913
	c-0.338,0.585-0.738,1.116-1.205,1.591c-0.465,0.476-0.979,0.88-1.546,1.215c-0.564,0.334-1.172,0.592-1.816,0.773
	C271.579,45.736,270.911,45.827,270.222,45.827z M270.563,44.271c0.77,0,1.475-0.154,2.112-0.463c0.641-0.308,1.19-0.73,1.652-1.271
	c0.462-0.539,0.82-1.17,1.074-1.893c0.255-0.723,0.382-1.503,0.382-2.34c0-0.877-0.139-1.685-0.417-2.425
	c-0.277-0.739-0.659-1.377-1.145-1.913c-0.486-0.536-1.056-0.952-1.707-1.25c-0.652-0.297-1.354-0.447-2.104-0.447
	c-0.783,0-1.495,0.159-2.134,0.477c-0.64,0.318-1.188,0.748-1.644,1.291c-0.454,0.542-0.808,1.176-1.059,1.903
	s-0.377,1.501-0.377,2.325c0,0.877,0.137,1.682,0.412,2.415c0.273,0.733,0.652,1.365,1.135,1.897
	c0.481,0.531,1.049,0.947,1.701,1.246C269.103,44.122,269.807,44.271,270.563,44.271z"/>
<path fill="#B30909" d="M279.709,34.982h1.486l0.301,1.848c0.234-0.221,0.502-0.452,0.804-0.693
	c0.302-0.241,0.628-0.462,0.979-0.663c0.352-0.201,0.725-0.367,1.12-0.497c0.395-0.131,0.8-0.196,1.215-0.196
	c0.488,0,0.929,0.094,1.32,0.281c0.392,0.188,0.727,0.451,1.004,0.789s0.492,0.74,0.643,1.205c0.151,0.465,0.228,0.972,0.228,1.521
	v7.049H286.9v-6.869c0-0.388-0.055-0.731-0.166-1.029c-0.11-0.297-0.263-0.545-0.456-0.743c-0.194-0.198-0.426-0.347-0.693-0.447
	s-0.559-0.15-0.874-0.15c-0.556,0-1.081,0.147-1.575,0.442c-0.495,0.295-1.001,0.683-1.518,1.165v7.632h-1.907V34.982H279.709z"/>
<path fill="#B30909" d="M290.943,29.54h1.907v16.086h-1.907V29.54z"/>
<path fill="#B30909" d="M295.941,32.672c-0.168,0-0.325-0.03-0.473-0.09c-0.147-0.061-0.274-0.144-0.382-0.251
	c-0.106-0.107-0.19-0.233-0.251-0.377s-0.091-0.303-0.091-0.477c0-0.174,0.033-0.338,0.102-0.492
	c0.065-0.154,0.154-0.288,0.266-0.402c0.11-0.114,0.241-0.202,0.392-0.266c0.151-0.063,0.311-0.095,0.479-0.095
	c0.16,0,0.313,0.032,0.457,0.095c0.144,0.064,0.269,0.152,0.376,0.266c0.106,0.114,0.19,0.246,0.251,0.397
	c0.061,0.15,0.091,0.31,0.091,0.477c0,0.181-0.034,0.347-0.101,0.497c-0.067,0.151-0.155,0.278-0.268,0.382
	c-0.109,0.104-0.239,0.186-0.386,0.246C296.256,32.642,296.102,32.672,295.941,32.672z M294.977,34.982h1.907v10.644h-1.907V34.982z
	"/>
<path fill="#B30909" d="M299.052,34.982h1.485l0.302,1.848c0.233-0.221,0.502-0.452,0.804-0.693
	c0.301-0.241,0.627-0.462,0.979-0.663c0.353-0.201,0.726-0.367,1.12-0.497c0.396-0.131,0.8-0.196,1.215-0.196
	c0.488,0,0.93,0.094,1.32,0.281c0.393,0.188,0.728,0.451,1.004,0.789c0.278,0.338,0.492,0.74,0.644,1.205
	c0.15,0.465,0.227,0.972,0.227,1.521v7.049h-1.908v-6.869c0-0.388-0.055-0.731-0.166-1.029c-0.109-0.297-0.263-0.545-0.456-0.743
	c-0.193-0.198-0.426-0.347-0.692-0.447c-0.269-0.1-0.56-0.15-0.874-0.15c-0.557,0-1.081,0.147-1.576,0.442s-1.001,0.683-1.517,1.165
	v7.632h-1.907V34.982H299.052z"/>
<path fill="#B30909" d="M318.681,44.723c-0.255,0.18-0.547,0.34-0.879,0.477c-0.331,0.137-0.674,0.253-1.029,0.346
	c-0.354,0.094-0.711,0.164-1.069,0.211c-0.357,0.047-0.69,0.07-0.999,0.07c-0.683,0-1.332-0.114-1.947-0.342
	c-0.616-0.227-1.154-0.563-1.616-1.004s-0.83-0.988-1.104-1.642c-0.273-0.653-0.411-1.404-0.411-2.254
	c0-0.877,0.146-1.673,0.437-2.39c0.292-0.716,0.682-1.327,1.17-1.833c0.489-0.505,1.053-0.896,1.692-1.17
	c0.639-0.274,1.311-0.412,2.014-0.412c0.568,0,1.1,0.095,1.591,0.286c0.492,0.19,0.921,0.477,1.286,0.858
	c0.364,0.381,0.65,0.858,0.858,1.431c0.207,0.572,0.311,1.24,0.311,2.003c0,0.154-0.006,0.338-0.02,0.552
	c-0.015,0.214-0.04,0.439-0.08,0.673h-7.271c0,0.576,0.103,1.09,0.308,1.542c0.204,0.452,0.491,0.833,0.862,1.145
	c0.371,0.313,0.814,0.547,1.33,0.709c0.517,0.16,1.085,0.24,1.707,0.24c0.154,0,0.342-0.007,0.563-0.02
	c0.222-0.014,0.459-0.041,0.713-0.081c0.255-0.04,0.52-0.099,0.794-0.177c0.274-0.076,0.538-0.178,0.793-0.306v1.087H318.681z
	 M317.176,39.4c0-0.502-0.07-0.946-0.211-1.331c-0.142-0.385-0.332-0.708-0.572-0.969c-0.241-0.261-0.521-0.458-0.839-0.592
	c-0.318-0.134-0.658-0.201-1.021-0.201c-0.4,0-0.778,0.083-1.135,0.246c-0.354,0.164-0.664,0.387-0.929,0.668
	c-0.266,0.281-0.475,0.609-0.627,0.984c-0.154,0.375-0.231,0.773-0.231,1.195H317.176z"/>
<path fill="#B30909" d="M75.984,51.996h-0.992l0.074-0.454c0.241-0.05,0.434-0.112,0.579-0.188c0.145-0.076,0.265-0.17,0.358-0.285
	c0.095-0.113,0.174-0.252,0.236-0.414c0.063-0.163,0.135-0.356,0.216-0.582h0.407v1.219h1.78l-0.187,0.704h-1.595v2.744
	c0,0.147,0.021,0.272,0.067,0.377c0.045,0.104,0.106,0.188,0.188,0.254c0.081,0.063,0.178,0.11,0.292,0.141s0.241,0.044,0.38,0.044
	c0.144,0,0.284-0.013,0.425-0.039c0.142-0.025,0.273-0.063,0.4-0.108v0.501c-0.194,0.127-0.399,0.223-0.614,0.289
	s-0.433,0.1-0.654,0.1c-0.207,0-0.395-0.029-0.562-0.088s-0.311-0.145-0.429-0.255c-0.119-0.11-0.211-0.249-0.276-0.415
	c-0.063-0.164-0.097-0.354-0.097-0.566v-2.977H75.984z"/>
<path fill="#B30909" d="M82.248,56.297c-0.364,0-0.688-0.064-0.974-0.193c-0.285-0.131-0.524-0.305-0.721-0.523
	c-0.197-0.219-0.347-0.477-0.449-0.768c-0.104-0.293-0.155-0.601-0.155-0.926c0-0.369,0.065-0.719,0.197-1.045
	c0.131-0.326,0.313-0.609,0.547-0.854c0.233-0.244,0.511-0.438,0.832-0.577s0.67-0.211,1.047-0.211c0.368,0,0.695,0.065,0.982,0.196
	s0.528,0.31,0.726,0.53c0.196,0.224,0.346,0.479,0.447,0.772c0.102,0.291,0.152,0.598,0.152,0.92c0,0.373-0.065,0.723-0.198,1.049
	c-0.135,0.326-0.317,0.609-0.553,0.852c-0.234,0.24-0.513,0.431-0.834,0.569C82.974,56.229,82.625,56.297,82.248,56.297z
	 M82.442,55.593c0.226,0,0.431-0.046,0.614-0.137c0.183-0.091,0.342-0.216,0.473-0.373c0.132-0.157,0.233-0.344,0.306-0.56
	c0.073-0.213,0.109-0.444,0.109-0.691c0-0.244-0.035-0.48-0.106-0.712c-0.07-0.229-0.174-0.437-0.309-0.616
	c-0.134-0.181-0.299-0.326-0.493-0.436c-0.195-0.109-0.414-0.164-0.658-0.164c-0.226,0-0.431,0.045-0.613,0.137
	c-0.185,0.09-0.343,0.216-0.474,0.375c-0.132,0.159-0.232,0.348-0.306,0.563c-0.073,0.217-0.109,0.448-0.109,0.695
	c0,0.244,0.036,0.48,0.106,0.712c0.071,0.229,0.174,0.435,0.309,0.614s0.298,0.322,0.491,0.432
	C81.975,55.54,82.195,55.593,82.442,55.593z"/>
<path fill="#B30909" d="M86.973,51.292l0.898,3.438l0.14,0.778h0.093l0.157-0.77l0.981-3.3h1.006l0.975,3.289l0.167,0.779h0.093
	l0.146-0.77l0.909-3.448h0.891l-1.559,4.913h-0.969l-0.937-3.041l-0.214-0.854H89.66l-0.213,0.854l-0.955,3.041h-0.964l-1.529-4.913
	h0.975V51.292z"/>
<path fill="#B30909" d="M97.505,55.473c-0.076,0.064-0.171,0.146-0.279,0.238c-0.11,0.094-0.233,0.186-0.371,0.271
	c-0.139,0.086-0.287,0.16-0.449,0.223s-0.335,0.092-0.517,0.092c-0.164,0-0.324-0.027-0.48-0.086
	c-0.155-0.057-0.294-0.143-0.414-0.254c-0.121-0.113-0.218-0.253-0.29-0.42c-0.072-0.166-0.108-0.357-0.108-0.574
	c0-0.133,0.017-0.268,0.049-0.404c0.032-0.135,0.088-0.266,0.165-0.391s0.179-0.242,0.304-0.354
	c0.125-0.108,0.279-0.205,0.463-0.287s0.401-0.146,0.651-0.191s0.538-0.07,0.861-0.07h0.417V52.84c0-0.143-0.023-0.271-0.073-0.385
	c-0.051-0.114-0.118-0.213-0.206-0.294c-0.088-0.082-0.193-0.146-0.315-0.19c-0.122-0.044-0.257-0.065-0.405-0.065
	c-0.11,0-0.229,0.012-0.354,0.036c-0.125,0.023-0.251,0.061-0.376,0.105c-0.125,0.047-0.244,0.102-0.358,0.162
	c-0.114,0.063-0.215,0.131-0.302,0.205l-0.083-0.047l-0.186-0.678c0.179-0.099,0.352-0.18,0.519-0.242
	c0.167-0.063,0.327-0.113,0.479-0.15s0.3-0.063,0.438-0.076c0.139-0.015,0.271-0.021,0.398-0.021c0.577,0,1.007,0.118,1.285,0.358
	c0.279,0.239,0.421,0.6,0.421,1.077v2.419c0,0.041,0.003,0.09,0.009,0.146c0.006,0.056,0.021,0.111,0.044,0.164
	c0.022,0.053,0.058,0.098,0.103,0.135c0.044,0.037,0.105,0.057,0.184,0.057c0.043,0,0.101-0.008,0.172-0.021
	c0.069-0.014,0.142-0.038,0.213-0.072v0.491c-0.148,0.103-0.298,0.185-0.447,0.248s-0.294,0.095-0.434,0.095
	c-0.127,0-0.23-0.025-0.313-0.076s-0.149-0.117-0.204-0.197c-0.054-0.08-0.097-0.168-0.127-0.266
	C97.553,55.66,97.526,55.564,97.505,55.473z M97.505,53.805h-0.353c-0.361,0-0.649,0.025-0.864,0.076S95.909,54,95.797,54.084
	c-0.111,0.086-0.187,0.184-0.223,0.295c-0.035,0.111-0.053,0.227-0.053,0.348c0,0.129,0.019,0.246,0.056,0.349
	c0.037,0.102,0.089,0.188,0.155,0.262c0.065,0.073,0.146,0.127,0.238,0.164c0.092,0.037,0.192,0.056,0.301,0.056
	c0.084,0,0.17-0.01,0.258-0.029c0.088-0.021,0.183-0.055,0.282-0.106c0.101-0.051,0.207-0.12,0.319-0.206s0.237-0.197,0.373-0.334
	L97.505,53.805L97.505,53.805z"/>
<path fill="#B30909" d="M100.463,51.292h0.688l0.139,1.474c0.04-0.076,0.083-0.156,0.128-0.238c0.044-0.082,0.089-0.161,0.134-0.237
	c0.046-0.078,0.09-0.149,0.133-0.22c0.044-0.067,0.082-0.127,0.115-0.176c0.068-0.096,0.146-0.186,0.229-0.271
	c0.085-0.084,0.177-0.158,0.275-0.224c0.1-0.063,0.203-0.111,0.314-0.147c0.111-0.035,0.23-0.053,0.356-0.053
	c0.09,0,0.175,0.01,0.256,0.03c0.08,0.021,0.146,0.054,0.199,0.1l-0.094,0.825c-0.056-0.017-0.109-0.025-0.165-0.03
	c-0.054-0.005-0.106-0.007-0.159-0.007c-0.22,0-0.41,0.034-0.572,0.106c-0.162,0.07-0.308,0.166-0.437,0.289
	c-0.128,0.121-0.244,0.266-0.348,0.428c-0.104,0.164-0.208,0.341-0.313,0.529v2.734h-0.881v-4.913H100.463z"/>
<path fill="#B30909" d="M108.229,48.78h0.88v7.425h-0.687l-0.139-0.854c-0.104,0.1-0.223,0.203-0.353,0.313
	c-0.131,0.109-0.273,0.213-0.432,0.307s-0.329,0.172-0.513,0.234s-0.379,0.092-0.586,0.092c-0.297,0-0.563-0.064-0.797-0.197
	c-0.235-0.131-0.436-0.305-0.6-0.522c-0.163-0.218-0.289-0.468-0.375-0.748c-0.087-0.281-0.13-0.573-0.13-0.876
	c0-0.398,0.072-0.768,0.216-1.104c0.145-0.338,0.342-0.627,0.592-0.871s0.544-0.436,0.881-0.572
	c0.336-0.139,0.698-0.206,1.084-0.206c0.186,0,0.358,0.014,0.521,0.039c0.162,0.026,0.308,0.054,0.435,0.081v-2.54H108.229z
	 M108.229,52.135c-0.229-0.098-0.436-0.162-0.617-0.189c-0.182-0.026-0.332-0.04-0.449-0.04c-0.273,0-0.52,0.045-0.733,0.137
	c-0.216,0.09-0.396,0.219-0.546,0.382c-0.148,0.163-0.261,0.36-0.338,0.59c-0.076,0.229-0.115,0.479-0.115,0.754
	c0,0.241,0.031,0.471,0.098,0.688c0.063,0.216,0.157,0.406,0.278,0.57c0.119,0.162,0.266,0.293,0.436,0.389s0.359,0.145,0.569,0.145
	c0.251,0,0.494-0.067,0.729-0.203c0.236-0.133,0.466-0.315,0.688-0.549V52.135L108.229,52.135z"/>
<path fill="#B30909" d="M110.904,55.24l0.083-0.055c0.118,0.063,0.241,0.121,0.371,0.174c0.13,0.051,0.258,0.093,0.385,0.127
	c0.127,0.033,0.251,0.061,0.373,0.078c0.122,0.02,0.235,0.027,0.341,0.027c0.146,0,0.277-0.017,0.398-0.051
	c0.12-0.034,0.223-0.082,0.308-0.145s0.151-0.137,0.2-0.223c0.048-0.086,0.071-0.182,0.071-0.287c0-0.133-0.037-0.244-0.111-0.332
	s-0.171-0.164-0.292-0.227c-0.12-0.063-0.258-0.118-0.412-0.164c-0.154-0.047-0.313-0.096-0.473-0.145
	c-0.161-0.05-0.318-0.105-0.474-0.166c-0.154-0.063-0.292-0.142-0.413-0.234c-0.119-0.096-0.218-0.209-0.292-0.344
	c-0.073-0.135-0.11-0.299-0.11-0.493c0-0.216,0.048-0.421,0.145-0.614s0.229-0.361,0.402-0.505c0.174-0.144,0.381-0.257,0.624-0.341
	c0.242-0.084,0.512-0.125,0.809-0.125c0.071,0,0.156,0.003,0.255,0.01c0.1,0.006,0.204,0.016,0.315,0.029
	c0.111,0.013,0.225,0.033,0.34,0.057c0.116,0.021,0.229,0.051,0.337,0.085l-0.186,0.724l-0.111,0.064
	c-0.087-0.047-0.182-0.086-0.285-0.121c-0.104-0.033-0.209-0.061-0.314-0.08c-0.106-0.021-0.211-0.035-0.313-0.047
	c-0.103-0.011-0.19-0.016-0.269-0.016c-0.144,0-0.271,0.015-0.389,0.046c-0.114,0.03-0.215,0.075-0.299,0.132
	c-0.083,0.057-0.147,0.127-0.193,0.209c-0.048,0.082-0.069,0.176-0.069,0.279c0,0.137,0.037,0.25,0.111,0.339
	c0.073,0.09,0.173,0.167,0.296,0.229c0.124,0.063,0.264,0.118,0.42,0.164c0.156,0.048,0.314,0.095,0.479,0.146
	c0.164,0.049,0.323,0.104,0.479,0.166c0.156,0.063,0.296,0.141,0.42,0.236c0.123,0.096,0.223,0.213,0.296,0.351
	c0.074,0.138,0.111,0.306,0.111,0.503c0,0.23-0.053,0.445-0.155,0.64c-0.104,0.195-0.245,0.362-0.426,0.505
	c-0.182,0.144-0.394,0.252-0.636,0.332c-0.242,0.078-0.503,0.117-0.78,0.117c-0.238,0-0.492-0.027-0.764-0.083
	c-0.271-0.056-0.532-0.133-0.79-0.231L110.904,55.24z"/>
<path fill="#B30909" d="M120.91,55.473c-0.077,0.064-0.171,0.146-0.28,0.238c-0.109,0.094-0.232,0.186-0.371,0.271
	c-0.138,0.086-0.286,0.16-0.448,0.223s-0.335,0.092-0.518,0.092c-0.164,0-0.323-0.027-0.479-0.086
	c-0.155-0.057-0.294-0.143-0.414-0.254c-0.121-0.113-0.218-0.253-0.29-0.42C118.037,55.371,118,55.18,118,54.963
	c0-0.133,0.018-0.268,0.049-0.404c0.033-0.135,0.089-0.266,0.165-0.391c0.077-0.125,0.18-0.242,0.305-0.354
	c0.125-0.108,0.278-0.205,0.463-0.287c0.184-0.082,0.4-0.146,0.65-0.191s0.538-0.07,0.862-0.07h0.417V52.84
	c0-0.143-0.023-0.271-0.074-0.385c-0.05-0.114-0.117-0.213-0.206-0.294c-0.088-0.082-0.192-0.146-0.314-0.19
	c-0.122-0.044-0.257-0.065-0.405-0.065c-0.111,0-0.229,0.012-0.354,0.036c-0.125,0.023-0.251,0.061-0.376,0.105
	c-0.125,0.047-0.244,0.102-0.358,0.162c-0.115,0.063-0.215,0.131-0.302,0.205l-0.083-0.047l-0.187-0.678
	c0.18-0.099,0.353-0.18,0.52-0.242c0.167-0.063,0.327-0.113,0.479-0.15c0.153-0.037,0.3-0.063,0.438-0.076
	c0.139-0.015,0.271-0.021,0.397-0.021c0.578,0,1.007,0.118,1.286,0.358c0.279,0.239,0.42,0.6,0.42,1.077v2.419
	c0,0.041,0.003,0.09,0.009,0.146c0.007,0.056,0.021,0.111,0.045,0.164c0.022,0.053,0.058,0.098,0.103,0.135
	c0.044,0.037,0.105,0.057,0.183,0.057c0.043,0,0.102-0.008,0.173-0.021c0.069-0.014,0.142-0.038,0.213-0.072v0.491
	c-0.148,0.103-0.299,0.185-0.447,0.248c-0.15,0.063-0.294,0.095-0.435,0.095c-0.127,0-0.229-0.025-0.313-0.076
	s-0.15-0.117-0.204-0.197s-0.097-0.168-0.127-0.266C120.958,55.66,120.932,55.564,120.91,55.473z M120.91,53.805h-0.353
	c-0.361,0-0.649,0.025-0.864,0.076s-0.379,0.119-0.491,0.203c-0.112,0.086-0.187,0.184-0.223,0.295
	c-0.035,0.111-0.054,0.227-0.054,0.348c0,0.129,0.02,0.246,0.057,0.349c0.037,0.102,0.089,0.188,0.155,0.262
	c0.065,0.073,0.146,0.127,0.237,0.164s0.193,0.056,0.301,0.056c0.085,0,0.171-0.01,0.259-0.029c0.088-0.021,0.183-0.055,0.281-0.106
	c0.102-0.051,0.207-0.12,0.32-0.206c0.112-0.086,0.237-0.197,0.373-0.334L120.91,53.805L120.91,53.805z"/>
<path fill="#B30909" d="M127.073,52.145c0.108-0.104,0.228-0.213,0.359-0.324c0.131-0.11,0.273-0.213,0.429-0.307
	c0.154-0.092,0.321-0.168,0.5-0.227c0.18-0.059,0.371-0.088,0.575-0.088c0.3,0,0.566,0.066,0.804,0.197s0.438,0.306,0.603,0.522
	c0.165,0.217,0.292,0.47,0.381,0.751c0.089,0.282,0.133,0.575,0.133,0.878c0,0.397-0.074,0.767-0.222,1.104
	c-0.146,0.336-0.345,0.627-0.596,0.871c-0.25,0.244-0.543,0.434-0.878,0.569s-0.69,0.203-1.068,0.203
	c-0.153,0-0.318-0.01-0.495-0.032c-0.177-0.021-0.332-0.051-0.469-0.088v2.514h-0.881v-7.397h0.668L127.073,52.145z M127.129,55.371
	c0.087,0.043,0.18,0.078,0.275,0.105c0.098,0.027,0.195,0.051,0.292,0.066c0.098,0.018,0.191,0.03,0.28,0.037
	c0.09,0.008,0.167,0.012,0.231,0.012c0.253,0,0.485-0.048,0.697-0.144c0.212-0.097,0.394-0.229,0.545-0.398s0.27-0.37,0.353-0.601
	c0.084-0.229,0.125-0.479,0.125-0.748c0-0.238-0.033-0.465-0.101-0.678s-0.16-0.399-0.282-0.561s-0.269-0.289-0.439-0.383
	s-0.36-0.141-0.567-0.141c-0.257,0-0.503,0.067-0.739,0.205c-0.235,0.139-0.46,0.315-0.67,0.535V55.371z"/>
<path fill="#B30909" d="M136.34,55.787c-0.117,0.084-0.253,0.156-0.404,0.221c-0.153,0.063-0.313,0.117-0.477,0.16
	s-0.328,0.075-0.493,0.098c-0.166,0.021-0.318,0.031-0.462,0.031c-0.313,0-0.613-0.053-0.897-0.156
	c-0.284-0.104-0.533-0.26-0.746-0.465c-0.214-0.203-0.384-0.456-0.51-0.758c-0.127-0.301-0.19-0.646-0.19-1.04
	c0-0.405,0.067-0.772,0.201-1.103c0.135-0.332,0.313-0.613,0.54-0.846c0.226-0.234,0.486-0.414,0.781-0.541s0.604-0.189,0.93-0.189
	c0.262,0,0.507,0.044,0.734,0.133c0.227,0.088,0.425,0.219,0.593,0.396c0.169,0.176,0.301,0.396,0.396,0.66
	c0.097,0.264,0.145,0.572,0.145,0.924c0,0.071-0.003,0.156-0.009,0.256c-0.008,0.099-0.02,0.201-0.037,0.311h-3.355
	c0,0.266,0.047,0.503,0.142,0.712c0.095,0.208,0.228,0.386,0.398,0.527c0.171,0.146,0.376,0.254,0.613,0.327
	c0.238,0.074,0.501,0.111,0.788,0.111c0.07,0,0.158-0.004,0.26-0.01s0.212-0.02,0.329-0.037c0.117-0.02,0.239-0.046,0.366-0.082
	c0.127-0.035,0.248-0.082,0.365-0.141V55.787L136.34,55.787z M135.645,53.331c0-0.231-0.032-0.437-0.099-0.614
	c-0.063-0.178-0.151-0.326-0.264-0.447c-0.111-0.119-0.24-0.211-0.388-0.272c-0.146-0.062-0.304-0.092-0.471-0.092
	c-0.186,0-0.359,0.036-0.523,0.112c-0.163,0.075-0.308,0.178-0.429,0.309c-0.122,0.13-0.219,0.281-0.289,0.454
	c-0.071,0.174-0.106,0.356-0.106,0.552L135.645,53.331L135.645,53.331z"/>
<path fill="#B30909" d="M140.129,56.297c-0.363,0-0.688-0.064-0.974-0.193c-0.285-0.131-0.524-0.305-0.721-0.523
	c-0.197-0.219-0.347-0.477-0.449-0.768c-0.104-0.293-0.155-0.601-0.155-0.926c0-0.369,0.065-0.719,0.197-1.045
	c0.131-0.326,0.313-0.609,0.547-0.854s0.511-0.438,0.832-0.577s0.67-0.211,1.047-0.211c0.368,0,0.695,0.065,0.982,0.196
	c0.288,0.131,0.528,0.31,0.726,0.53c0.196,0.224,0.346,0.479,0.447,0.772c0.102,0.291,0.153,0.598,0.153,0.92
	c0,0.373-0.066,0.723-0.199,1.049c-0.134,0.326-0.317,0.609-0.553,0.852c-0.234,0.24-0.513,0.431-0.834,0.569
	C140.854,56.229,140.506,56.297,140.129,56.297z M140.323,55.593c0.226,0,0.431-0.046,0.614-0.137
	c0.183-0.091,0.342-0.216,0.473-0.373c0.132-0.157,0.233-0.344,0.306-0.56c0.073-0.213,0.109-0.444,0.109-0.691
	c0-0.244-0.035-0.48-0.105-0.712c-0.071-0.229-0.175-0.437-0.31-0.616c-0.134-0.181-0.299-0.326-0.493-0.436
	s-0.414-0.164-0.658-0.164c-0.226,0-0.431,0.045-0.613,0.137c-0.185,0.09-0.342,0.216-0.474,0.375s-0.232,0.348-0.306,0.563
	c-0.073,0.217-0.109,0.448-0.109,0.695c0,0.244,0.036,0.48,0.106,0.712c0.071,0.229,0.174,0.435,0.309,0.614
	c0.136,0.18,0.299,0.322,0.491,0.432C139.856,55.54,140.076,55.593,140.323,55.593z"/>
<path fill="#B30909" d="M145.197,52.145c0.108-0.104,0.228-0.213,0.359-0.324c0.131-0.11,0.273-0.213,0.429-0.307
	c0.154-0.092,0.321-0.168,0.5-0.227c0.18-0.059,0.371-0.088,0.575-0.088c0.3,0,0.566,0.066,0.804,0.197s0.438,0.306,0.603,0.522
	c0.165,0.217,0.292,0.47,0.381,0.751c0.089,0.282,0.133,0.575,0.133,0.878c0,0.397-0.074,0.767-0.222,1.104
	c-0.146,0.336-0.345,0.627-0.596,0.871c-0.25,0.244-0.543,0.434-0.878,0.569s-0.69,0.203-1.068,0.203
	c-0.153,0-0.318-0.01-0.495-0.032c-0.177-0.021-0.332-0.051-0.469-0.088v2.514h-0.881v-7.397h0.668L145.197,52.145z M145.253,55.371
	c0.087,0.043,0.18,0.078,0.275,0.105c0.098,0.027,0.195,0.051,0.292,0.066c0.098,0.018,0.191,0.03,0.28,0.037
	c0.09,0.008,0.167,0.012,0.231,0.012c0.253,0,0.485-0.048,0.697-0.144c0.212-0.097,0.394-0.229,0.545-0.398s0.269-0.37,0.352-0.601
	c0.085-0.229,0.125-0.479,0.125-0.748c0-0.238-0.032-0.465-0.1-0.678s-0.16-0.399-0.282-0.561s-0.269-0.289-0.439-0.383
	s-0.36-0.141-0.567-0.141c-0.257,0-0.503,0.067-0.739,0.205c-0.235,0.139-0.46,0.315-0.67,0.535V55.371z"/>
<path fill="#B30909" d="M150.589,48.78h0.882v7.425h-0.882V48.78z"/>
<path fill="#B30909" d="M157.261,55.787c-0.118,0.084-0.254,0.156-0.405,0.221c-0.153,0.063-0.313,0.117-0.477,0.16
	s-0.327,0.075-0.492,0.098c-0.166,0.021-0.319,0.031-0.463,0.031c-0.313,0-0.613-0.053-0.897-0.156
	c-0.284-0.104-0.533-0.26-0.746-0.465c-0.214-0.203-0.384-0.456-0.51-0.758c-0.127-0.301-0.19-0.646-0.19-1.04
	c0-0.405,0.067-0.772,0.201-1.103c0.135-0.332,0.314-0.613,0.54-0.846c0.226-0.234,0.486-0.414,0.781-0.541s0.604-0.189,0.93-0.189
	c0.262,0,0.507,0.044,0.734,0.133c0.227,0.088,0.425,0.219,0.593,0.396c0.169,0.176,0.301,0.396,0.396,0.66
	c0.097,0.264,0.145,0.572,0.145,0.924c0,0.071-0.003,0.156-0.009,0.256c-0.008,0.099-0.02,0.201-0.037,0.311h-3.355
	c0,0.266,0.047,0.503,0.142,0.712c0.095,0.208,0.228,0.386,0.398,0.527c0.171,0.146,0.376,0.254,0.613,0.327
	c0.238,0.074,0.501,0.111,0.788,0.111c0.071,0,0.158-0.004,0.26-0.01s0.212-0.02,0.329-0.037c0.117-0.02,0.239-0.046,0.366-0.082
	c0.127-0.035,0.248-0.082,0.366-0.141V55.787L157.261,55.787z M156.565,53.331c0-0.231-0.032-0.437-0.099-0.614
	c-0.063-0.178-0.151-0.326-0.264-0.447c-0.111-0.119-0.24-0.211-0.388-0.272c-0.146-0.062-0.303-0.092-0.47-0.092
	c-0.187,0-0.36,0.036-0.524,0.112c-0.163,0.075-0.307,0.178-0.429,0.309c-0.122,0.13-0.219,0.281-0.289,0.454
	c-0.071,0.174-0.106,0.356-0.106,0.552L156.565,53.331L156.565,53.331z"/>
<path fill="#B30909" d="M158.843,51.533c0.104-0.115,0.205-0.234,0.3-0.361s0.179-0.255,0.253-0.385
	c0.074-0.129,0.137-0.256,0.188-0.38c0.053-0.124,0.09-0.239,0.111-0.349c-0.034-0.031-0.076-0.063-0.127-0.1
	c-0.052-0.036-0.106-0.068-0.165-0.1s-0.119-0.059-0.181-0.082c-0.063-0.022-0.12-0.041-0.177-0.053
	c-0.024-0.043-0.042-0.094-0.051-0.152c-0.01-0.059-0.015-0.109-0.015-0.153c0-0.074,0.015-0.151,0.044-0.231
	s0.072-0.154,0.128-0.223s0.126-0.124,0.211-0.167s0.183-0.065,0.294-0.065c0.087,0,0.173,0.018,0.258,0.05s0.161,0.084,0.229,0.155
	c0.066,0.07,0.122,0.162,0.164,0.275s0.063,0.25,0.063,0.41c0,0.148-0.022,0.309-0.068,0.479c-0.048,0.17-0.12,0.344-0.222,0.525
	c-0.1,0.182-0.229,0.365-0.387,0.551c-0.157,0.188-0.346,0.373-0.565,0.559L158.843,51.533z"/>
<path fill="#B30909" d="M162.001,55.24l0.083-0.055c0.118,0.063,0.241,0.121,0.371,0.174c0.13,0.051,0.258,0.093,0.385,0.127
	c0.127,0.033,0.251,0.061,0.373,0.078c0.122,0.02,0.235,0.027,0.342,0.027c0.145,0,0.276-0.017,0.397-0.051
	c0.12-0.034,0.223-0.082,0.308-0.145c0.086-0.063,0.151-0.137,0.2-0.223c0.048-0.086,0.071-0.182,0.071-0.287
	c0-0.133-0.037-0.244-0.111-0.332c-0.073-0.088-0.171-0.164-0.292-0.227c-0.12-0.063-0.258-0.118-0.412-0.164
	c-0.153-0.047-0.313-0.096-0.473-0.145c-0.161-0.05-0.318-0.105-0.473-0.166c-0.155-0.063-0.292-0.142-0.413-0.234
	c-0.12-0.096-0.218-0.209-0.292-0.344s-0.111-0.299-0.111-0.493c0-0.216,0.048-0.421,0.146-0.614
	c0.096-0.193,0.229-0.361,0.401-0.505c0.174-0.144,0.381-0.257,0.624-0.341c0.242-0.084,0.513-0.125,0.81-0.125
	c0.07,0,0.155,0.003,0.255,0.01c0.099,0.006,0.204,0.016,0.314,0.029c0.111,0.013,0.226,0.033,0.34,0.057
	c0.116,0.021,0.229,0.051,0.338,0.085l-0.187,0.724l-0.111,0.064c-0.087-0.047-0.182-0.086-0.284-0.121
	c-0.104-0.033-0.209-0.061-0.315-0.08c-0.105-0.021-0.211-0.035-0.313-0.047c-0.104-0.011-0.191-0.016-0.27-0.016
	c-0.143,0-0.271,0.015-0.388,0.046c-0.115,0.03-0.215,0.075-0.299,0.132c-0.083,0.057-0.148,0.127-0.194,0.209
	c-0.047,0.082-0.069,0.176-0.069,0.279c0,0.137,0.037,0.25,0.111,0.339c0.074,0.09,0.173,0.167,0.296,0.229
	c0.124,0.063,0.264,0.118,0.42,0.164c0.156,0.048,0.315,0.095,0.479,0.146c0.164,0.049,0.322,0.104,0.479,0.166
	c0.156,0.063,0.296,0.141,0.42,0.236c0.123,0.096,0.224,0.213,0.296,0.351c0.074,0.138,0.111,0.306,0.111,0.503
	c0,0.23-0.052,0.445-0.155,0.64c-0.103,0.195-0.245,0.362-0.426,0.505c-0.181,0.144-0.393,0.252-0.635,0.332
	c-0.243,0.078-0.503,0.117-0.781,0.117c-0.238,0-0.492-0.027-0.763-0.083c-0.271-0.056-0.533-0.133-0.79-0.231L162.001,55.24z"/>
<path fill="#B30909" d="M169.354,48.78h0.881v3.309c0.111-0.099,0.234-0.2,0.371-0.306c0.136-0.105,0.282-0.201,0.438-0.287
	c0.158-0.087,0.323-0.158,0.496-0.213c0.173-0.057,0.354-0.084,0.538-0.084c0.224,0,0.424,0.043,0.604,0.127
	c0.181,0.086,0.336,0.205,0.466,0.357c0.13,0.151,0.229,0.336,0.299,0.551c0.069,0.215,0.104,0.453,0.104,0.717v3.254h-0.882v-3.18
	c0-0.181-0.024-0.338-0.075-0.474c-0.052-0.137-0.12-0.25-0.209-0.341s-0.193-0.159-0.317-0.204
	c-0.123-0.045-0.256-0.065-0.398-0.065c-0.26,0-0.505,0.066-0.735,0.203c-0.232,0.137-0.466,0.314-0.7,0.537v3.522h-0.881V48.78
	L169.354,48.78z"/>
<path fill="#B30909" d="M175.91,50.227c-0.077,0-0.148-0.015-0.218-0.043c-0.069-0.027-0.127-0.065-0.176-0.115
	c-0.051-0.049-0.088-0.107-0.116-0.174c-0.027-0.066-0.042-0.141-0.042-0.221s0.016-0.156,0.047-0.227
	c0.03-0.071,0.071-0.133,0.123-0.186c0.051-0.053,0.11-0.094,0.181-0.123c0.069-0.029,0.144-0.044,0.221-0.044
	c0.073,0,0.145,0.015,0.211,0.044c0.065,0.029,0.124,0.07,0.174,0.123s0.088,0.113,0.116,0.184c0.026,0.07,0.041,0.143,0.041,0.22
	c0,0.083-0.017,0.16-0.047,0.229s-0.071,0.127-0.123,0.176c-0.051,0.048-0.109,0.084-0.179,0.113
	C176.056,50.212,175.984,50.227,175.91,50.227z M175.466,51.292h0.881v4.913h-0.881V51.292z"/>
<path fill="#B30909" d="M178.155,55.24l0.083-0.055c0.118,0.063,0.241,0.121,0.371,0.174c0.13,0.051,0.258,0.093,0.385,0.127
	c0.127,0.033,0.251,0.061,0.373,0.078c0.122,0.02,0.235,0.027,0.341,0.027c0.146,0,0.277-0.017,0.398-0.051
	c0.12-0.034,0.223-0.082,0.308-0.145s0.151-0.137,0.2-0.223c0.048-0.086,0.071-0.182,0.071-0.287c0-0.133-0.037-0.244-0.111-0.332
	s-0.171-0.164-0.292-0.227c-0.12-0.063-0.258-0.118-0.412-0.164c-0.154-0.047-0.313-0.096-0.473-0.145
	c-0.161-0.05-0.318-0.105-0.474-0.166c-0.154-0.063-0.292-0.142-0.413-0.234c-0.119-0.096-0.218-0.209-0.292-0.344
	c-0.073-0.135-0.11-0.299-0.11-0.493c0-0.216,0.048-0.421,0.145-0.614s0.229-0.361,0.402-0.505c0.174-0.144,0.381-0.257,0.624-0.341
	c0.242-0.084,0.512-0.125,0.809-0.125c0.071,0,0.156,0.003,0.255,0.01c0.1,0.006,0.204,0.016,0.315,0.029
	c0.111,0.013,0.225,0.033,0.34,0.057c0.116,0.021,0.229,0.051,0.337,0.085l-0.186,0.724l-0.111,0.064
	c-0.087-0.047-0.182-0.086-0.285-0.121c-0.104-0.033-0.209-0.061-0.314-0.08c-0.106-0.021-0.211-0.035-0.313-0.047
	c-0.103-0.011-0.19-0.016-0.269-0.016c-0.144,0-0.271,0.015-0.389,0.046c-0.114,0.03-0.215,0.075-0.299,0.132
	c-0.083,0.057-0.147,0.127-0.193,0.209c-0.047,0.082-0.069,0.176-0.069,0.279c0,0.137,0.037,0.25,0.111,0.339
	c0.073,0.09,0.173,0.167,0.296,0.229c0.124,0.063,0.264,0.118,0.42,0.164c0.156,0.048,0.314,0.095,0.479,0.146
	c0.164,0.049,0.323,0.104,0.479,0.166c0.156,0.063,0.296,0.141,0.42,0.236c0.123,0.096,0.223,0.213,0.296,0.351
	c0.074,0.138,0.111,0.306,0.111,0.503c0,0.23-0.053,0.445-0.155,0.64c-0.104,0.195-0.245,0.362-0.426,0.505
	c-0.182,0.144-0.394,0.252-0.636,0.332c-0.242,0.078-0.503,0.117-0.78,0.117c-0.238,0-0.492-0.027-0.764-0.083
	c-0.271-0.056-0.532-0.133-0.79-0.231L178.155,55.24z"/>
<path fill="#B30909" d="M183.562,51.996h-0.992l0.074-0.454c0.24-0.05,0.434-0.112,0.579-0.188c0.145-0.076,0.265-0.17,0.358-0.285
	c0.094-0.113,0.173-0.252,0.236-0.414c0.063-0.163,0.135-0.356,0.216-0.582h0.407v1.219h1.78l-0.187,0.704h-1.595v2.744
	c0,0.147,0.021,0.272,0.066,0.377c0.045,0.104,0.107,0.188,0.188,0.254c0.081,0.063,0.178,0.11,0.292,0.141s0.241,0.044,0.38,0.044
	c0.143,0,0.284-0.013,0.425-0.039c0.142-0.025,0.273-0.063,0.4-0.108v0.501c-0.194,0.127-0.399,0.223-0.614,0.289
	s-0.433,0.1-0.655,0.1c-0.207,0-0.394-0.029-0.561-0.088s-0.312-0.145-0.429-0.255c-0.119-0.11-0.211-0.249-0.276-0.415
	c-0.064-0.164-0.097-0.354-0.097-0.566v-2.977H183.562z"/>
<path fill="#B30909" d="M189.824,56.297c-0.364,0-0.688-0.064-0.974-0.193c-0.285-0.131-0.524-0.305-0.722-0.523
	c-0.196-0.219-0.346-0.477-0.448-0.768c-0.104-0.293-0.155-0.601-0.155-0.926c0-0.369,0.064-0.719,0.197-1.045
	c0.131-0.326,0.313-0.609,0.547-0.854c0.233-0.244,0.511-0.438,0.832-0.577c0.32-0.14,0.67-0.211,1.047-0.211
	c0.368,0,0.695,0.065,0.981,0.196c0.288,0.131,0.529,0.31,0.727,0.53c0.196,0.224,0.346,0.479,0.447,0.772
	c0.102,0.291,0.152,0.598,0.152,0.92c0,0.373-0.065,0.723-0.199,1.049s-0.316,0.609-0.552,0.852
	c-0.234,0.24-0.513,0.431-0.834,0.569C190.55,56.229,190.201,56.297,189.824,56.297z M190.019,55.593
	c0.226,0,0.431-0.046,0.613-0.137c0.184-0.091,0.343-0.216,0.474-0.373c0.132-0.157,0.232-0.344,0.306-0.56
	c0.073-0.213,0.109-0.444,0.109-0.691c0-0.244-0.035-0.48-0.106-0.712c-0.07-0.229-0.174-0.437-0.309-0.616
	c-0.134-0.181-0.299-0.326-0.493-0.436c-0.195-0.109-0.414-0.164-0.658-0.164c-0.226,0-0.431,0.045-0.614,0.137
	c-0.184,0.09-0.342,0.216-0.473,0.375c-0.132,0.159-0.233,0.348-0.306,0.563c-0.073,0.217-0.109,0.448-0.109,0.695
	c0,0.244,0.036,0.48,0.106,0.712c0.07,0.229,0.174,0.435,0.309,0.614s0.298,0.322,0.491,0.432
	C189.552,55.54,189.771,55.593,190.019,55.593z"/>
<path fill="#B30909" d="M194.067,51.292h0.687l0.14,1.474c0.04-0.076,0.083-0.156,0.128-0.238c0.044-0.082,0.089-0.161,0.134-0.237
	c0.045-0.078,0.089-0.149,0.132-0.22c0.044-0.067,0.082-0.127,0.116-0.176c0.068-0.096,0.145-0.186,0.229-0.271
	c0.085-0.084,0.178-0.158,0.275-0.224c0.1-0.063,0.204-0.111,0.315-0.147c0.11-0.035,0.229-0.053,0.355-0.053
	c0.09,0,0.175,0.01,0.256,0.03c0.08,0.021,0.146,0.054,0.199,0.1l-0.093,0.825c-0.057-0.017-0.11-0.025-0.165-0.03
	c-0.054-0.005-0.107-0.007-0.16-0.007c-0.219,0-0.41,0.034-0.572,0.106c-0.162,0.07-0.307,0.166-0.436,0.289
	c-0.128,0.121-0.244,0.266-0.349,0.428c-0.104,0.164-0.208,0.341-0.313,0.529v2.734h-0.881v-4.913H194.067z"/>
<path fill="#B30909" d="M197.875,51.292h0.991l1.075,3.317l0.223,0.899h0.093l0.224-0.899l1.075-3.317h0.907l-2.762,7.397h-0.854
	l1.028-2.484h-0.167L197.875,51.292z"/>
<g>
	<path fill="#B30909" d="M54.104,60.227c-0.441,0.369-0.9,0.705-1.376,1.022c0.204,0.336,0.396,0.653,0.591,0.97
		c0.997,1.605,1.878,3.088,2.637,4.376c0.645,1.085,1.208,2.037,1.686,2.831c0.979,1.631,1.534,2.62,1.596,2.744
		c-0.079-0.105-0.759-1.023-1.878-2.559c-0.539-0.76-1.182-1.65-1.914-2.674c-0.891-1.217-1.897-2.609-2.973-4.162
		c-0.213-0.301-0.433-0.609-0.653-0.928c-0.591,0.379-1.208,0.732-1.835,1.041c-0.035,0.027-0.069,0.045-0.106,0.053
		c-0.705,0.371-1.438,0.697-2.187,0.979c-0.035,0.021-0.08,0.036-0.123,0.045c-0.732,0.291-1.491,0.538-2.259,0.741
		c-0.044,0.018-0.088,0.025-0.132,0.034c-0.759,0.212-1.535,0.372-2.329,0.493c-0.044,0.019-0.09,0.029-0.133,0.029
		c-0.776,0.121-1.57,0.209-2.373,0.254c-0.044,0.008-0.079,0.008-0.123,0.008c-0.433,0.029-0.865,0.037-1.307,0.037
		c-0.362,0-0.724-0.008-1.085-0.027c-0.043,0-0.079,0-0.123-0.01c-0.812-0.033-1.604-0.112-2.391-0.229
		c-0.044-0.009-0.079-0.009-0.114-0.018c-0.793-0.124-1.579-0.282-2.347-0.478c-0.044-0.018-0.079-0.026-0.123-0.034
		c-0.777-0.203-1.535-0.44-2.276-0.725c-0.045-0.009-0.08-0.025-0.116-0.045c-0.749-0.28-1.489-0.6-2.194-0.952
		c-0.036-0.019-0.071-0.034-0.106-0.062c-0.724-0.344-1.42-0.74-2.091-1.172c-0.035-0.021-0.07-0.037-0.106-0.071
		c-0.679-0.425-1.322-0.882-1.948-1.386c-0.036-0.008-0.07-0.045-0.106-0.078c-0.625-0.486-1.226-1.016-1.799-1.58
		c-0.028-0.018-0.063-0.043-0.089-0.079c-0.582-0.556-1.129-1.146-1.632-1.757c-0.034-0.033-0.062-0.069-0.088-0.104
		c-0.538-0.637-1.032-1.298-1.499-1.984c-0.318,0.203-0.628,0.404-0.937,0.6c-1.57,0.979-3,1.88-4.252,2.672
		c-1.094,0.689-2.056,1.298-2.858,1.801c-1.243,0.768-2.098,1.287-2.486,1.526c0.379-0.272,1.2-0.849,2.391-1.677
		c0.785-0.528,1.719-1.174,2.787-1.905c1.217-0.828,2.611-1.781,4.146-2.832c0.309-0.201,0.617-0.414,0.935-0.625
		c-0.22-0.328-0.432-0.662-0.617-1.006h3.431c0.381,0.547,0.777,1.075,1.21,1.588c0.025,0.034,0.053,0.069,0.097,0.104
		c0.432,0.539,0.909,1.041,1.411,1.526c0.025,0.034,0.062,0.07,0.097,0.097c0.503,0.485,1.023,0.943,1.57,1.367
		c0.035,0.034,0.07,0.063,0.104,0.079c0.54,0.441,1.112,0.838,1.694,1.208c0.044,0.027,0.08,0.055,0.124,0.081
		c0.582,0.37,1.189,0.713,1.816,1.021c0.035,0.02,0.071,0.037,0.105,0.055c0.619,0.309,1.252,0.582,1.906,0.828
		c0.044,0.02,0.088,0.035,0.132,0.054c0.645,0.237,1.306,0.44,1.976,0.618c0.044,0.018,0.088,0.025,0.134,0.035
		c0.661,0.176,1.34,0.316,2.035,0.424c0.045,0,0.09,0.008,0.143,0.018c0.671,0.096,1.358,0.166,2.055,0.202h0.141
		c0.31,0.019,0.628,0.026,0.944,0.026c0.379,0,0.758-0.01,1.138-0.026c0.045-0.008,0.09-0.008,0.133-0.017
		c0.697-0.036,1.385-0.107,2.063-0.213c0.045-0.008,0.089-0.02,0.133-0.026c0.688-0.104,1.368-0.256,2.029-0.433
		c0.043-0.01,0.088-0.026,0.132-0.043c0.681-0.178,1.333-0.389,1.977-0.637c0.044-0.018,0.089-0.025,0.124-0.054
		c0.652-0.246,1.289-0.528,1.904-0.837c0.045-0.025,0.079-0.045,0.115-0.063c0.512-0.265,1.015-0.547,1.5-0.847
		c-0.803-1.155-1.631-2.374-2.488-3.626c-0.052,0.035-0.113,0.07-0.176,0.105c-0.273,0.158-0.548,0.316-0.83,0.459
		c-0.044,0.024-0.097,0.054-0.141,0.07c-0.441,0.229-0.9,0.433-1.367,0.616c-0.035,0.011-0.062,0.027-0.096,0.036
		c-0.045,0.018-0.089,0.034-0.143,0.055c-0.494,0.191-1.006,0.36-1.518,0.491v0.009c-0.053,0.012-0.105,0.027-0.159,0.036
		c-0.512,0.142-1.032,0.246-1.561,0.336c-0.055,0.009-0.1,0.019-0.15,0.025c-0.521,0.08-1.051,0.133-1.589,0.159
		c-0.053,0.009-0.106,0.009-0.158,0.017c-0.379,0.021-0.759,0.028-1.146,0.021c-0.15,0-0.31-0.012-0.458-0.021
		c-0.054,0-0.097,0-0.15-0.008c-0.326-0.009-0.653-0.035-0.988-0.071c-0.203-0.025-0.405-0.043-0.6-0.078
		c-0.053-0.01-0.106-0.019-0.151-0.025c-0.467-0.071-0.934-0.17-1.384-0.274c-0.061-0.019-0.123-0.024-0.185-0.054
		c-0.054-0.008-0.106-0.018-0.15-0.034c-0.521-0.133-1.032-0.291-1.526-0.478c-0.044-0.018-0.097-0.035-0.141-0.051
		c-0.255-0.091-0.502-0.195-0.75-0.301c-0.247-0.107-0.485-0.221-0.724-0.336c-0.043-0.018-0.089-0.045-0.133-0.063
		c-0.484-0.246-0.952-0.513-1.402-0.795c-0.043-0.024-0.088-0.052-0.132-0.08c-0.301-0.191-0.592-0.396-0.873-0.6
		c-0.142-0.104-0.291-0.211-0.434-0.334c-0.036-0.027-0.079-0.053-0.124-0.09c-0.414-0.334-0.819-0.688-1.208-1.057
		c-0.036-0.037-0.07-0.071-0.106-0.105c-0.034-0.036-0.062-0.063-0.097-0.098h23.976c-0.026,0.027-0.063,0.062-0.097,0.098
		c-0.38,0.37-0.785,0.73-1.199,1.059c-0.044,0.045-0.08,0.078-0.123,0.104c-0.203,0.161-0.407,0.318-0.619,0.461
		c0.813,1.287,1.597,2.53,2.338,3.729c0.362-0.246,0.715-0.512,1.059-0.791c0.044-0.028,0.08-0.055,0.115-0.09
		c0.547-0.441,1.068-0.899,1.562-1.395c0.036-0.025,0.062-0.053,0.088-0.088c0.503-0.484,0.971-1.006,1.412-1.544
		c0.033-0.034,0.061-0.063,0.088-0.097c0.379-0.468,0.741-0.953,1.085-1.446h3.431c-0.229,0.413-0.485,0.827-0.759,1.227
		c-0.017,0.033-0.035,0.07-0.063,0.104c-0.44,0.671-0.917,1.313-1.428,1.933c-0.026,0.035-0.053,0.071-0.079,0.104
		c-0.512,0.617-1.05,1.209-1.623,1.772c-0.026,0.028-0.053,0.054-0.08,0.08c-0.572,0.563-1.173,1.094-1.799,1.597
		C54.174,60.182,54.139,60.208,54.104,60.227z"/>
	<path fill="#B30909" d="M69.902,20.858c-0.115,0.079-1.05,0.723-2.611,1.808c-0.854,0.591-1.904,1.305-3.104,2.126
		c-1.147,0.785-2.426,1.667-3.828,2.619c-0.3,0.204-0.609,0.416-0.927,0.627c0.221,0.334,0.433,0.679,0.627,1.032h-3.423
		c-0.292-0.415-0.592-0.821-0.908-1.209c-0.019-0.034-0.045-0.07-0.079-0.105c-0.441-0.557-0.918-1.094-1.421-1.597
		c-0.026-0.035-0.062-0.07-0.088-0.096c-0.503-0.512-1.032-0.998-1.587-1.438c-0.036-0.035-0.063-0.062-0.099-0.08
		c-0.555-0.458-1.128-0.891-1.728-1.278c-0.036-0.027-0.08-0.053-0.115-0.07c-0.591-0.398-1.208-0.759-1.843-1.085
		c-0.036-0.018-0.08-0.044-0.124-0.062c-0.634-0.326-1.287-0.617-1.958-0.874c-0.036-0.026-0.079-0.035-0.124-0.053
		c-0.662-0.256-1.35-0.476-2.046-0.662c-0.035-0.018-0.08-0.026-0.124-0.035c-0.688-0.185-1.385-0.335-2.1-0.45
		c-0.045-0.009-0.096-0.017-0.141-0.017c-0.697-0.107-1.411-0.186-2.135-0.221h-0.134c-0.316-0.018-0.643-0.027-0.97-0.027
		c-0.396,0-0.794,0.009-1.182,0.036c-0.045,0-0.088,0-0.133,0.008c-0.725,0.044-1.438,0.124-2.144,0.238
		c-0.045,0-0.088,0.009-0.124,0.027c-0.714,0.115-1.42,0.265-2.107,0.468c-0.044,0-0.088,0.017-0.124,0.035
		c-0.697,0.186-1.368,0.415-2.029,0.68c-0.043,0.009-0.088,0.026-0.132,0.052c-0.67,0.265-1.323,0.565-1.949,0.892
		c-0.044,0.027-0.08,0.044-0.115,0.061c-0.415,0.221-0.812,0.451-1.208,0.698c0.829,1.199,1.693,2.46,2.584,3.766
		c0.027-0.008,0.055-0.026,0.08-0.044c0.212-0.123,0.424-0.238,0.636-0.352c0.045-0.028,0.079-0.045,0.123-0.071
		c0.485-0.248,0.988-0.477,1.5-0.68c0.026-0.018,0.055-0.027,0.08-0.035c0.018-0.009,0.044-0.018,0.063-0.027
		c0.512-0.202,1.032-0.379,1.568-0.52c0.046-0.019,0.098-0.036,0.142-0.044c0.529-0.15,1.068-0.266,1.614-0.354
		c0.045-0.017,0.098-0.026,0.149-0.026c0.027-0.008,0.063-0.008,0.088-0.018c0.513-0.079,1.033-0.141,1.563-0.168
		c0.052-0.008,0.097-0.008,0.15-0.008c0.388-0.026,0.784-0.035,1.183-0.026c0.149,0,0.309,0.008,0.458,0.017
		c0.053,0,0.105,0,0.158,0.009c0.326,0.017,0.645,0.044,0.97,0.079c0.229,0.027,0.45,0.053,0.671,0.097c0.053,0,0.106,0,0.15,0.018
		c0.449,0.062,0.891,0.15,1.322,0.255c0.098,0.026,0.202,0.053,0.301,0.079c0.052,0.009,0.097,0.018,0.141,0.036
		c0.539,0.141,1.067,0.308,1.579,0.503c0.044,0.017,0.088,0.035,0.141,0.052c0.194,0.08,0.396,0.159,0.591,0.248
		c0.31,0.132,0.617,0.282,0.917,0.441c0.044,0.018,0.088,0.035,0.133,0.071c0.494,0.247,0.971,0.521,1.43,0.82
		c0.043,0.025,0.08,0.052,0.114,0.087c0.229,0.142,0.449,0.292,0.661,0.45c0.229,0.168,0.45,0.336,0.671,0.521
		c0.045,0.027,0.079,0.053,0.114,0.097c0.354,0.273,0.68,0.573,1.005,0.892H27.13c0.273-0.282,0.563-0.539,0.864-0.777
		c0.035-0.044,0.07-0.079,0.114-0.097c0.309-0.274,0.618-0.512,0.944-0.732c-0.849-1.341-1.659-2.638-2.427-3.882
		c-0.485,0.345-0.961,0.707-1.411,1.085c-0.035,0.026-0.07,0.062-0.106,0.097c-0.555,0.45-1.076,0.936-1.569,1.456
		c-0.036,0.026-0.062,0.054-0.088,0.088c-0.495,0.512-0.962,1.05-1.403,1.614c-0.034,0.036-0.061,0.071-0.078,0.106
		c-0.273,0.335-0.53,0.688-0.776,1.042H17.77c0.141-0.256,0.291-0.512,0.45-0.76c0.018-0.034,0.044-0.07,0.07-0.105
		c0.433-0.688,0.9-1.358,1.402-1.993v-0.009c0.027-0.036,0.053-0.062,0.079-0.098c0.503-0.644,1.042-1.252,1.624-1.843
		c0.017-0.026,0.043-0.062,0.079-0.088c0.563-0.591,1.164-1.146,1.79-1.676c0.034-0.018,0.062-0.043,0.097-0.08
		c0.556-0.458,1.138-0.899,1.738-1.305c-0.204-0.327-0.396-0.645-0.592-0.962c-0.864-1.411-1.648-2.716-2.346-3.889
		c-0.767-1.288-1.428-2.408-1.976-3.317c-0.979-1.64-1.535-2.619-1.597-2.743c0.079,0.106,0.76,1.023,1.879,2.558
		c0.617,0.864,1.385,1.923,2.259,3.14c0.793,1.103,1.685,2.346,2.628,3.696c0.212,0.3,0.423,0.608,0.643,0.917
		c0.503-0.317,1.023-0.617,1.554-0.891c0.035-0.026,0.07-0.044,0.105-0.053c0.724-0.389,1.464-0.732,2.231-1.032
		c0.036-0.018,0.08-0.036,0.125-0.044c0.758-0.31,1.534-0.574,2.327-0.786c0.035-0.018,0.071-0.026,0.115-0.035
		c0.786-0.22,1.598-0.398,2.417-0.53c0.035-0.018,0.079-0.018,0.115-0.026c0.803-0.133,1.624-0.221,2.452-0.265
		c0.044-0.009,0.08-0.018,0.124-0.009c0.45-0.035,0.898-0.043,1.349-0.043c0.371,0,0.741,0.009,1.111,0.035
		c0.045-0.009,0.079-0.009,0.124,0c0.829,0.036,1.647,0.124,2.452,0.247c0.044,0,0.088,0.01,0.124,0.018
		c0.819,0.124,1.631,0.3,2.417,0.512c0.035,0.009,0.079,0.017,0.113,0.026c0.804,0.212,1.589,0.468,2.347,0.768
		c0.037,0.009,0.07,0.027,0.106,0.044c0.775,0.291,1.517,0.627,2.249,1.006c0.036,0.018,0.079,0.035,0.115,0.063
		c0.732,0.37,1.437,0.785,2.117,1.234c0.035,0.018,0.069,0.035,0.105,0.07c0.688,0.441,1.351,0.935,1.984,1.446
		c0.036,0.027,0.062,0.054,0.097,0.08c0.637,0.52,1.244,1.068,1.817,1.659l0.08,0.08c0.574,0.582,1.121,1.19,1.631,1.834
		c0.027,0.026,0.053,0.062,0.071,0.097c0.415,0.503,0.803,1.032,1.173,1.58c0.317-0.203,0.627-0.406,0.936-0.6
		c1.438-0.9,2.752-1.729,3.927-2.479c1.233-0.768,2.311-1.438,3.185-1.993C68.817,21.528,69.787,20.929,69.902,20.858z"/>
	<g>
		<path fill="#B30909" d="M14.428,50.654c-0.9-1.092-1.385-2.826-1.446-5.205l3.655-0.611c0.016,1.365,0.165,2.346,0.442,2.941
			c0.279,0.593,0.696,0.89,1.254,0.89c0.717,0,1.076-0.521,1.076-1.569c0-0.834-0.171-1.554-0.515-2.156
			c-0.341-0.604-0.879-1.252-1.613-1.943l-1.671-1.625c-0.831-0.781-1.471-1.609-1.925-2.488c-0.454-0.879-0.682-1.923-0.682-3.129
			c0-1.811,0.481-3.203,1.446-4.179c0.963-0.976,2.29-1.464,3.979-1.464c1.831,0,3.076,0.595,3.738,1.782
			c0.662,1.19,1.018,2.636,1.064,4.341l-3.68,0.506c-0.033-1.118-0.124-1.921-0.276-2.411c-0.152-0.487-0.481-0.732-0.993-0.732
			c-0.364,0-0.647,0.174-0.848,0.52c-0.198,0.347-0.298,0.733-0.298,1.158c0,0.728,0.146,1.34,0.441,1.837
			c0.294,0.496,0.77,1.065,1.421,1.703l1.603,1.571c0.956,0.904,1.696,1.862,2.223,2.875c0.526,1.012,0.789,2.209,0.789,3.594
			c0,1.012-0.211,1.93-0.633,2.757c-0.424,0.823-1.017,1.478-1.78,1.956c-0.767,0.479-1.648,0.72-2.652,0.72
			C16.702,52.292,15.327,51.746,14.428,50.654z"/>
		<path fill="#B30909" d="M32.58,30.409h-4.876l-3.656,21.563h4.04l0.668-4.554H31.6l0.643,4.554h3.945L32.58,30.409z M29.137,44.57
			l1.027-8.412l1.028,8.412H29.137z"/>
		<path fill="#B30909" d="M38.938,30.408h4.277v8.731h2.988v-8.731h4.302v21.564h-4.302v-9.426h-2.988v9.426h-4.277V30.408z"/>
		<path fill="#B30909" d="M54.521,50.495c-0.894-1.199-1.338-2.97-1.338-5.313v-8.011c0-2.344,0.444-4.106,1.338-5.286
			c0.892-1.18,2.382-1.771,4.471-1.771c2.104,0,3.604,0.595,4.504,1.782c0.899,1.19,1.352,2.948,1.352,5.274v8.012
			c0,2.342-0.452,4.112-1.352,5.313c-0.9,1.195-2.401,1.797-4.504,1.797C56.902,52.292,55.413,51.691,54.521,50.495z M60.186,48.23
			c0.19-0.451,0.286-1.068,0.286-1.851V35.999c0-0.799-0.096-1.419-0.286-1.863c-0.191-0.443-0.59-0.666-1.195-0.666
			c-0.576,0-0.957,0.228-1.148,0.68c-0.19,0.453-0.287,1.069-0.287,1.85v10.382c0,0.781,0.088,1.398,0.264,1.851
			c0.173,0.453,0.564,0.68,1.172,0.68C59.596,48.91,59.995,48.684,60.186,48.23z"/>
	</g>
	<g>
		<path fill="#B30909" d="M40.617,7.539c0,0,0.021,0.296,0.032,0.743c0.011,0.444-0.005,1.037-0.025,1.628
			c-0.035,0.591-0.074,1.182-0.127,1.625c-0.053,0.443-0.102,0.736-0.102,0.736s-0.021-0.296-0.032-0.743
			c-0.011-0.444,0.005-1.037,0.025-1.628c0.036-0.591,0.074-1.182,0.128-1.625C40.569,7.833,40.617,7.539,40.617,7.539z"/>
		<path fill="#B30909" d="M37.09,7.546c0,0,0.052,0.293,0.109,0.734c0.058,0.443,0.104,1.032,0.146,1.623
			c0.025,0.593,0.049,1.184,0.042,1.628c-0.008,0.446-0.024,0.743-0.024,0.743s-0.052-0.293-0.109-0.734s-0.104-1.032-0.145-1.623
			c-0.026-0.591-0.049-1.184-0.042-1.628C37.073,7.844,37.09,7.546,37.09,7.546z"/>
		<path fill="#B30909" d="M33.581,7.921c0,0,0.082,0.286,0.186,0.718c0.104,0.435,0.211,1.017,0.313,1.599
			c0.088,0.585,0.172,1.171,0.213,1.616c0.04,0.443,0.054,0.741,0.054,0.741s-0.082-0.286-0.186-0.72
			c-0.104-0.433-0.21-1.015-0.313-1.599c-0.088-0.585-0.172-1.171-0.213-1.614C33.595,8.218,33.581,7.921,33.581,7.921z"/>
		<path fill="#B30909" d="M30.131,8.661c0,0,0.111,0.275,0.26,0.696c0.147,0.42,0.314,0.989,0.479,1.558
			c0.149,0.574,0.294,1.147,0.38,1.583c0.087,0.438,0.132,0.732,0.132,0.732s-0.111-0.276-0.26-0.696
			c-0.147-0.42-0.314-0.989-0.479-1.558c-0.148-0.574-0.294-1.147-0.38-1.585C30.176,8.955,30.131,8.661,30.131,8.661z"/>
		<path fill="#B30909" d="M26.778,9.756c0,0,0.139,0.264,0.331,0.667c0.19,0.401,0.417,0.949,0.64,1.497
			c0.208,0.555,0.413,1.111,0.543,1.537c0.132,0.425,0.208,0.713,0.208,0.713s-0.14-0.262-0.332-0.665
			c-0.19-0.402-0.417-0.95-0.64-1.499c-0.208-0.555-0.412-1.109-0.543-1.535C26.854,10.046,26.778,9.756,26.778,9.756z"/>
		<path fill="#B30909" d="M23.557,11.198c0,0,0.167,0.247,0.397,0.627c0.233,0.379,0.516,0.901,0.793,1.423
			c0.266,0.531,0.526,1.061,0.701,1.471c0.176,0.408,0.281,0.688,0.281,0.688s-0.167-0.247-0.399-0.627
			c-0.231-0.379-0.514-0.901-0.793-1.423c-0.265-0.531-0.524-1.061-0.701-1.471C23.662,11.478,23.557,11.198,23.557,11.198z"/>
		<path fill="#B30909" d="M17.653,15.047c0,0,0.214,0.207,0.52,0.531c0.308,0.324,0.691,0.775,1.073,1.229
			c0.369,0.461,0.735,0.929,0.992,1.292c0.257,0.364,0.417,0.615,0.417,0.615s-0.215-0.207-0.521-0.531
			c-0.307-0.324-0.69-0.773-1.07-1.229c-0.37-0.463-0.736-0.928-0.993-1.292C17.814,15.299,17.653,15.047,17.653,15.047z"/>
		<path fill="#B30909" d="M15.036,17.413c0,0,0.234,0.184,0.573,0.474c0.339,0.29,0.768,0.698,1.194,1.108
			c0.416,0.422,0.828,0.848,1.121,1.182c0.293,0.336,0.479,0.569,0.479,0.569s-0.234-0.183-0.573-0.474
			c-0.338-0.288-0.768-0.698-1.193-1.107c-0.415-0.422-0.828-0.846-1.122-1.182C15.222,17.645,15.036,17.413,15.036,17.413z"/>
		<path fill="#B30909" d="M12.679,20.04c0,0,0.253,0.158,0.619,0.412c0.367,0.251,0.836,0.613,1.305,0.977
			c0.457,0.376,0.913,0.755,1.238,1.058c0.327,0.303,0.536,0.515,0.536,0.515s-0.252-0.159-0.62-0.41
			c-0.366-0.253-0.836-0.615-1.304-0.979c-0.457-0.375-0.912-0.754-1.239-1.058C12.889,20.252,12.679,20.04,12.679,20.04z"/>
		<path fill="#B30909" d="M10.61,22.9c0,0,0.268,0.131,0.659,0.343c0.392,0.213,0.896,0.523,1.398,0.835
			c0.495,0.327,0.987,0.656,1.345,0.923c0.356,0.267,0.587,0.457,0.587,0.457s-0.269-0.131-0.659-0.344
			c-0.392-0.212-0.896-0.522-1.399-0.836c-0.494-0.327-0.985-0.656-1.343-0.923S10.61,22.9,10.61,22.9z"/>
		<path fill="#B30909" d="M8.853,25.958c0,0,0.279,0.102,0.69,0.272c0.412,0.172,0.946,0.427,1.479,0.686
			c0.524,0.274,1.05,0.55,1.432,0.779c0.382,0.228,0.631,0.391,0.631,0.391s-0.279-0.102-0.69-0.272
			c-0.412-0.171-0.946-0.428-1.479-0.686c-0.524-0.274-1.049-0.549-1.432-0.779C9.102,26.122,8.853,25.958,8.853,25.958z"/>
		<path fill="#B30909" d="M7.423,29.185c0,0,0.289,0.072,0.717,0.2c0.426,0.126,0.983,0.324,1.542,0.526
			c0.551,0.217,1.101,0.436,1.505,0.624c0.403,0.186,0.669,0.324,0.669,0.324s-0.29-0.072-0.716-0.2
			c-0.428-0.126-0.986-0.324-1.542-0.525c-0.552-0.217-1.102-0.438-1.507-0.624C7.688,29.321,7.423,29.185,7.423,29.185z"/>
		<path fill="#B30909" d="M6.34,32.542c0,0,0.294,0.043,0.733,0.124c0.438,0.081,1.013,0.221,1.588,0.362
			c0.57,0.158,1.142,0.319,1.563,0.463c0.421,0.143,0.698,0.251,0.698,0.251S10.628,33.7,10.19,33.62
			c-0.438-0.08-1.015-0.22-1.589-0.363c-0.57-0.158-1.142-0.319-1.563-0.461C6.617,32.651,6.34,32.542,6.34,32.542z"/>
		<path fill="#B30909" d="M5.613,35.995c0,0,0.298,0.01,0.742,0.046c0.442,0.035,1.031,0.114,1.618,0.195
			c0.585,0.096,1.168,0.198,1.602,0.296c0.434,0.098,0.722,0.177,0.722,0.177s-0.298-0.01-0.741-0.045
			c-0.444-0.036-1.031-0.114-1.618-0.195c-0.584-0.098-1.168-0.198-1.603-0.298C5.9,36.074,5.613,35.995,5.613,35.995z"/>
		<path fill="#B30909" d="M5.25,39.504c0,0,0.298-0.021,0.743-0.031c0.445-0.012,1.038,0.005,1.63,0.024
			c0.591,0.036,1.183,0.074,1.625,0.127c0.442,0.053,0.736,0.102,0.736,0.102s-0.298,0.021-0.743,0.031
			c-0.445,0.012-1.038-0.003-1.629-0.024c-0.591-0.036-1.182-0.074-1.625-0.127S5.25,39.504,5.25,39.504z"/>
		<path fill="#B30909" d="M5.256,43.035c0,0,0.294-0.053,0.736-0.109c0.441-0.059,1.032-0.103,1.623-0.146
			c0.592-0.027,1.184-0.05,1.629-0.044s0.743,0.022,0.743,0.022s-0.293,0.054-0.735,0.11c-0.44,0.059-1.031,0.104-1.623,0.146
			C7.037,43.042,6.445,43.064,6,43.059C5.555,43.053,5.256,43.035,5.256,43.035z"/>
		<path fill="#B30909" d="M5.632,46.542c0,0,0.287-0.081,0.721-0.185c0.434-0.104,1.016-0.211,1.599-0.314
			c0.586-0.088,1.172-0.174,1.615-0.213c0.443-0.04,0.742-0.055,0.742-0.055s-0.287,0.084-0.721,0.187
			c-0.433,0.104-1.016,0.21-1.599,0.313c-0.586,0.088-1.171,0.172-1.615,0.214C5.931,46.527,5.632,46.542,5.632,46.542z"/>
		<path fill="#B30909" d="M6.373,49.992c0,0,0.277-0.112,0.696-0.26c0.42-0.148,0.988-0.315,1.558-0.48
			c0.574-0.148,1.147-0.295,1.584-0.381c0.438-0.086,0.732-0.131,0.732-0.131s-0.276,0.111-0.697,0.26
			c-0.419,0.148-0.988,0.314-1.557,0.48c-0.574,0.148-1.148,0.293-1.585,0.379C6.668,49.947,6.373,49.992,6.373,49.992z"/>
		<path fill="#B30909" d="M7.471,53.346c0,0,0.263-0.139,0.665-0.33c0.401-0.19,0.949-0.416,1.498-0.641
			c0.555-0.207,1.11-0.412,1.536-0.545c0.426-0.131,0.713-0.207,0.713-0.207s-0.263,0.143-0.664,0.333
			c-0.402,0.19-0.95,0.417-1.499,0.64c-0.555,0.209-1.11,0.413-1.536,0.545C7.758,53.271,7.471,53.346,7.471,53.346z"/>
		<path fill="#B30909" d="M8.912,56.568c0,0,0.247-0.166,0.627-0.398s0.9-0.516,1.422-0.794c0.53-0.265,1.063-0.526,1.472-0.703
			c0.408-0.176,0.688-0.28,0.688-0.28s-0.248,0.166-0.627,0.399c-0.379,0.231-0.9,0.515-1.422,0.794
			c-0.531,0.264-1.063,0.525-1.472,0.701S8.912,56.568,8.912,56.568z"/>
		<path fill="#B30909" d="M12.762,62.469c0,0,0.207-0.214,0.529-0.521c0.323-0.308,0.773-0.69,1.228-1.071
			c0.462-0.37,0.928-0.734,1.292-0.992c0.363-0.257,0.613-0.419,0.613-0.419s-0.207,0.216-0.529,0.522
			c-0.323,0.305-0.773,0.688-1.228,1.07c-0.463,0.368-0.929,0.735-1.292,0.992C13.012,62.309,12.762,62.469,12.762,62.469z"/>
		<path fill="#B30909" d="M15.128,65.088c0,0,0.185-0.234,0.474-0.574c0.29-0.338,0.696-0.767,1.107-1.193
			c0.422-0.415,0.847-0.828,1.182-1.121c0.335-0.295,0.566-0.48,0.566-0.48s-0.183,0.236-0.473,0.573
			c-0.289,0.34-0.697,0.769-1.108,1.194c-0.422,0.414-0.846,0.828-1.181,1.121S15.128,65.088,15.128,65.088z"/>
		<path fill="#B30909" d="M17.753,67.439c0,0,0.158-0.252,0.41-0.617c0.252-0.367,0.614-0.836,0.979-1.303
			c0.375-0.459,0.755-0.914,1.057-1.238c0.303-0.325,0.515-0.536,0.515-0.536s-0.158,0.254-0.41,0.62
			c-0.253,0.365-0.613,0.834-0.978,1.301c-0.376,0.457-0.756,0.912-1.058,1.239C17.965,67.23,17.753,67.439,17.753,67.439z"/>
		<path fill="#B30909" d="M20.612,69.508c0,0,0.131-0.267,0.344-0.656c0.213-0.393,0.522-0.896,0.835-1.397
			c0.326-0.495,0.655-0.987,0.922-1.343c0.268-0.356,0.456-0.588,0.456-0.588s-0.13,0.27-0.343,0.66
			c-0.213,0.392-0.522,0.895-0.835,1.396c-0.327,0.493-0.656,0.984-0.923,1.343C20.801,69.277,20.612,69.508,20.612,69.508z"/>
		<path fill="#B30909" d="M23.671,71.268c0,0,0.104-0.278,0.273-0.69c0.17-0.411,0.426-0.945,0.685-1.478
			c0.272-0.525,0.549-1.051,0.776-1.433c0.229-0.383,0.392-0.633,0.392-0.633s-0.102,0.28-0.271,0.692
			c-0.17,0.409-0.426,0.943-0.686,1.479c-0.272,0.525-0.549,1.049-0.776,1.432C23.835,71.02,23.671,71.268,23.671,71.268z"/>
		<path fill="#B30909" d="M26.897,72.695c0,0,0.072-0.289,0.199-0.715c0.127-0.428,0.324-0.985,0.525-1.543
			c0.216-0.551,0.437-1.101,0.623-1.504c0.188-0.404,0.324-0.668,0.324-0.668s-0.072,0.289-0.199,0.715
			c-0.126,0.428-0.325,0.985-0.525,1.543c-0.218,0.549-0.438,1.101-0.624,1.504C27.033,72.432,26.897,72.695,26.897,72.695z"/>
		<path fill="#B30909" d="M30.255,73.779c0,0,0.042-0.295,0.124-0.732s0.221-1.013,0.362-1.588c0.158-0.57,0.319-1.141,0.463-1.563
			s0.251-0.698,0.251-0.698s-0.042,0.296-0.123,0.733s-0.22,1.014-0.361,1.586c-0.159,0.57-0.32,1.142-0.464,1.563
			C30.364,73.502,30.255,73.779,30.255,73.779z"/>
		<path fill="#B30909" d="M33.708,74.506c0,0,0.012-0.298,0.047-0.742c0.034-0.441,0.113-1.029,0.194-1.615
			c0.097-0.584,0.197-1.168,0.296-1.603c0.1-0.433,0.178-0.721,0.178-0.721s-0.01,0.298-0.046,0.741
			c-0.035,0.443-0.112,1.029-0.193,1.617c-0.099,0.582-0.197,1.166-0.296,1.601C33.786,74.219,33.708,74.506,33.708,74.506z"/>
		<path fill="#B30909" d="M37.217,74.868c0,0-0.021-0.298-0.031-0.743c-0.012-0.443,0.005-1.035,0.023-1.628
			c0.036-0.591,0.075-1.183,0.127-1.623c0.053-0.442,0.103-0.737,0.103-0.737s0.021,0.299,0.032,0.743
			c0.011,0.444-0.006,1.037-0.025,1.628c-0.035,0.592-0.075,1.182-0.127,1.625C37.265,74.575,37.217,74.868,37.217,74.868z"/>
		<path fill="#B30909" d="M40.746,74.861c0,0-0.052-0.293-0.108-0.734c-0.059-0.439-0.104-1.032-0.146-1.623
			c-0.026-0.591-0.049-1.182-0.043-1.628c0.006-0.444,0.024-0.742,0.024-0.742s0.052,0.296,0.108,0.735
			c0.059,0.441,0.104,1.031,0.146,1.621c0.026,0.593,0.049,1.184,0.043,1.628C40.763,74.564,40.746,74.861,40.746,74.861z"/>
		<path fill="#B30909" d="M44.252,74.484c0,0-0.082-0.286-0.186-0.719c-0.104-0.434-0.21-1.016-0.314-1.599
			c-0.088-0.585-0.172-1.171-0.212-1.615c-0.04-0.442-0.054-0.741-0.054-0.741s0.082,0.289,0.186,0.721
			c0.104,0.433,0.211,1.015,0.314,1.598c0.088,0.586,0.172,1.171,0.212,1.616C44.238,74.188,44.252,74.484,44.252,74.484z"/>
		<path fill="#B30909" d="M47.701,73.745c0,0-0.111-0.276-0.259-0.696c-0.148-0.421-0.315-0.986-0.479-1.556
			c-0.147-0.574-0.294-1.147-0.38-1.585s-0.131-0.73-0.131-0.73s0.112,0.275,0.26,0.695c0.148,0.419,0.315,0.986,0.479,1.557
			c0.147,0.573,0.294,1.146,0.38,1.586C47.657,73.45,47.701,73.745,47.701,73.745z"/>
		<path fill="#B30909" d="M51.054,72.648c0,0-0.141-0.264-0.331-0.664c-0.191-0.401-0.417-0.949-0.64-1.5
			c-0.208-0.553-0.413-1.108-0.543-1.534c-0.132-0.427-0.207-0.714-0.207-0.714s0.142,0.264,0.331,0.664
			c0.192,0.402,0.417,0.951,0.641,1.5c0.207,0.554,0.411,1.108,0.542,1.535C50.979,72.361,51.054,72.648,51.054,72.648z"/>
		<path fill="#B30909" d="M54.275,71.209c0,0-0.167-0.247-0.398-0.627c-0.232-0.38-0.514-0.9-0.793-1.424
			c-0.264-0.53-0.524-1.061-0.7-1.471C52.208,67.279,52.103,67,52.103,67s0.167,0.246,0.397,0.627
			c0.233,0.379,0.516,0.9,0.793,1.423c0.265,0.531,0.525,1.062,0.7,1.472C54.17,70.93,54.275,71.209,54.275,71.209z"/>
		<path fill="#B30909" d="M60.177,67.359c0,0-0.214-0.209-0.521-0.53c-0.306-0.323-0.689-0.772-1.071-1.228
			c-0.369-0.463-0.733-0.929-0.989-1.291c-0.258-0.363-0.417-0.615-0.417-0.615s0.214,0.207,0.52,0.531
			c0.306,0.32,0.689,0.772,1.07,1.227c0.369,0.463,0.734,0.928,0.99,1.292C60.016,67.107,60.177,67.359,60.177,67.359z"/>
		<path fill="#B30909" d="M62.793,64.993c0,0-0.233-0.183-0.571-0.474c-0.339-0.289-0.768-0.696-1.193-1.106
			c-0.415-0.422-0.828-0.847-1.121-1.181c-0.293-0.336-0.479-0.568-0.479-0.568s0.234,0.186,0.572,0.475
			c0.338,0.287,0.768,0.695,1.193,1.105c0.415,0.422,0.827,0.848,1.12,1.182S62.793,64.993,62.793,64.993z"/>
		<path fill="#B30909" d="M65.149,62.367c0,0-0.252-0.158-0.619-0.41c-0.367-0.253-0.835-0.613-1.302-0.977
			c-0.458-0.379-0.913-0.758-1.238-1.061c-0.327-0.302-0.536-0.514-0.536-0.514s0.252,0.156,0.619,0.41
			c0.367,0.252,0.835,0.613,1.302,0.977c0.458,0.378,0.912,0.757,1.238,1.061C64.94,62.155,65.149,62.367,65.149,62.367z"/>
		<path fill="#B30909" d="M67.218,59.509c0,0-0.268-0.131-0.658-0.345c-0.392-0.212-0.896-0.523-1.397-0.835
			c-0.494-0.327-0.986-0.656-1.342-0.924c-0.357-0.267-0.587-0.456-0.587-0.456s0.268,0.131,0.658,0.344
			c0.391,0.212,0.896,0.521,1.397,0.836c0.494,0.327,0.986,0.656,1.342,0.924C66.987,59.318,67.218,59.509,67.218,59.509z"/>
		<path fill="#B30909" d="M68.977,56.451c0,0-0.28-0.102-0.691-0.271c-0.411-0.174-0.945-0.428-1.477-0.687
			c-0.526-0.274-1.05-0.55-1.432-0.778s-0.631-0.392-0.631-0.392s0.28,0.102,0.691,0.271c0.412,0.171,0.944,0.429,1.478,0.687
			c0.525,0.273,1.049,0.549,1.432,0.779C68.728,56.287,68.977,56.451,68.977,56.451z"/>
		<path fill="#B30909" d="M70.406,53.225c0,0-0.29-0.072-0.716-0.199c-0.427-0.127-0.985-0.324-1.541-0.525
			c-0.551-0.218-1.102-0.438-1.505-0.624c-0.404-0.187-0.668-0.324-0.668-0.324s0.289,0.072,0.716,0.2
			c0.426,0.126,0.983,0.325,1.541,0.527c0.55,0.216,1.101,0.437,1.504,0.621C70.14,53.088,70.406,53.225,70.406,53.225z"/>
		<path fill="#B30909" d="M71.488,49.868c0,0-0.294-0.042-0.732-0.124c-0.438-0.081-1.013-0.221-1.588-0.362
			c-0.569-0.159-1.14-0.321-1.562-0.463c-0.421-0.146-0.699-0.253-0.699-0.253s0.295,0.042,0.733,0.124
			c0.438,0.081,1.013,0.221,1.587,0.362c0.569,0.16,1.14,0.32,1.561,0.465C71.211,49.759,71.488,49.868,71.488,49.868z"/>
		<path fill="#B30909" d="M72.215,46.417c0,0-0.297-0.012-0.74-0.047c-0.444-0.036-1.031-0.113-1.618-0.194
			c-0.583-0.098-1.167-0.197-1.602-0.298c-0.434-0.098-0.722-0.177-0.722-0.177s0.298,0.01,0.742,0.046
			c0.442,0.035,1.03,0.114,1.617,0.194c0.584,0.099,1.167,0.199,1.602,0.299C71.929,46.337,72.215,46.417,72.215,46.417z"/>
		<path fill="#B30909" d="M72.578,42.905c0,0-0.297,0.021-0.743,0.032c-0.443,0.011-1.036-0.004-1.628-0.023
			c-0.591-0.037-1.182-0.076-1.624-0.129c-0.441-0.053-0.735-0.1-0.735-0.1s0.297-0.021,0.741-0.033
			c0.445-0.012,1.037,0.005,1.629,0.023c0.592,0.036,1.182,0.076,1.623,0.129C72.284,42.857,72.578,42.905,72.578,42.905z"/>
		<path fill="#B30909" d="M72.572,39.378c0,0-0.294,0.05-0.735,0.109c-0.44,0.057-1.031,0.103-1.622,0.146
			c-0.592,0.025-1.184,0.048-1.629,0.041c-0.444-0.005-0.743-0.024-0.743-0.024s0.295-0.052,0.735-0.108
			c0.442-0.059,1.032-0.104,1.623-0.146c0.591-0.026,1.183-0.048,1.628-0.042S72.572,39.378,72.572,39.378z"/>
		<path fill="#B30909" d="M72.196,35.869c0,0-0.286,0.083-0.719,0.186c-0.434,0.104-1.017,0.21-1.599,0.315
			c-0.586,0.088-1.171,0.172-1.614,0.212c-0.444,0.042-0.741,0.055-0.741,0.055s0.286-0.083,0.719-0.186
			c0.433-0.104,1.016-0.21,1.598-0.315c0.586-0.088,1.173-0.172,1.615-0.212C71.899,35.885,72.196,35.869,72.196,35.869z"/>
		<path fill="#B30909" d="M71.458,32.42c0,0-0.276,0.112-0.695,0.26c-0.421,0.148-0.988,0.315-1.558,0.479
			c-0.573,0.15-1.146,0.294-1.584,0.381c-0.437,0.086-0.73,0.131-0.73,0.131s0.276-0.112,0.695-0.26
			c0.42-0.148,0.988-0.315,1.558-0.479c0.573-0.148,1.146-0.294,1.584-0.381C71.163,32.465,71.458,32.42,71.458,32.42z"/>
		<path fill="#B30909" d="M70.361,29.067c0,0-0.264,0.14-0.665,0.331c-0.402,0.191-0.949,0.417-1.498,0.639
			c-0.554,0.208-1.109,0.413-1.535,0.544c-0.425,0.131-0.713,0.207-0.713,0.207s0.263-0.14,0.665-0.331
			c0.401-0.191,0.949-0.417,1.497-0.639c0.555-0.208,1.11-0.414,1.536-0.544C70.072,29.143,70.361,29.067,70.361,29.067z"/>
		<path fill="#B30909" d="M68.92,25.848c0,0-0.248,0.165-0.627,0.398c-0.379,0.232-0.899,0.513-1.422,0.792
			c-0.53,0.265-1.061,0.527-1.47,0.701c-0.409,0.176-0.688,0.281-0.688,0.281s0.248-0.167,0.627-0.4
			c0.381-0.23,0.9-0.513,1.423-0.792c0.529-0.264,1.062-0.525,1.471-0.699C68.642,25.953,68.92,25.848,68.92,25.848z"/>
		<path fill="#B30909" d="M65.071,19.945c0,0-0.207,0.213-0.531,0.52c-0.323,0.305-0.772,0.689-1.227,1.07
			c-0.462,0.371-0.929,0.736-1.292,0.993c-0.363,0.256-0.614,0.417-0.614,0.417s0.207-0.213,0.53-0.52
			c0.322-0.307,0.773-0.689,1.228-1.072c0.462-0.369,0.928-0.734,1.292-0.991C64.82,20.105,65.071,19.945,65.071,19.945z"/>
		<path fill="#B30909" d="M62.706,17.326c0,0-0.185,0.236-0.474,0.574s-0.697,0.767-1.107,1.194
			c-0.422,0.415-0.846,0.827-1.181,1.12s-0.568,0.479-0.568,0.479s0.185-0.234,0.474-0.572c0.29-0.339,0.697-0.767,1.107-1.194
			c0.422-0.415,0.848-0.827,1.183-1.12C62.473,17.513,62.706,17.326,62.706,17.326z"/>
		<path fill="#B30909" d="M60.079,14.971c0,0-0.159,0.251-0.411,0.619c-0.252,0.367-0.612,0.835-0.977,1.302
			c-0.375,0.458-0.755,0.913-1.058,1.239c-0.302,0.328-0.514,0.536-0.514,0.536s0.158-0.253,0.41-0.619
			c0.252-0.367,0.613-0.835,0.977-1.303c0.376-0.458,0.756-0.913,1.059-1.238C59.867,15.18,60.079,14.971,60.079,14.971z"/>
		<path fill="#B30909" d="M57.221,12.904c0,0-0.132,0.267-0.345,0.658c-0.212,0.391-0.521,0.894-0.834,1.397
			c-0.327,0.495-0.655,0.986-0.923,1.342c-0.266,0.356-0.456,0.587-0.456,0.587s0.131-0.269,0.344-0.66s0.522-0.894,0.835-1.397
			c0.326-0.493,0.656-0.985,0.923-1.342C57.032,13.133,57.221,12.904,57.221,12.904z"/>
		<path fill="#B30909" d="M54.163,11.145c0,0-0.102,0.279-0.272,0.691c-0.17,0.41-0.427,0.944-0.686,1.476
			c-0.272,0.526-0.549,1.049-0.776,1.432c-0.228,0.383-0.393,0.631-0.393,0.631s0.104-0.279,0.273-0.691
			c0.17-0.41,0.426-0.944,0.685-1.477c0.273-0.525,0.55-1.049,0.778-1.432C53.999,11.393,54.163,11.145,54.163,11.145z"/>
		<path fill="#B30909" d="M50.937,9.715c0,0-0.073,0.29-0.2,0.717c-0.126,0.425-0.325,0.984-0.526,1.54
			c-0.217,0.551-0.437,1.101-0.624,1.504c-0.187,0.405-0.323,0.67-0.323,0.67s0.071-0.29,0.198-0.717
			c0.127-0.427,0.326-0.983,0.527-1.54c0.217-0.551,0.437-1.101,0.624-1.506C50.8,9.98,50.937,9.715,50.937,9.715z"/>
		<path fill="#B30909" d="M47.578,8.629c0,0-0.042,0.296-0.123,0.734s-0.221,1.013-0.363,1.589c-0.157,0.57-0.318,1.14-0.462,1.561
			c-0.143,0.422-0.251,0.7-0.251,0.7s0.041-0.295,0.123-0.732c0.081-0.439,0.221-1.015,0.363-1.588
			c0.157-0.57,0.318-1.141,0.462-1.563C47.471,8.909,47.578,8.629,47.578,8.629z"/>
		<path fill="#B30909" d="M44.126,7.904c0,0-0.01,0.298-0.045,0.743c-0.036,0.442-0.114,1.03-0.196,1.616
			c-0.097,0.584-0.196,1.168-0.296,1.603c-0.099,0.434-0.178,0.72-0.178,0.72s0.01-0.298,0.046-0.741
			c0.035-0.444,0.113-1.03,0.195-1.618c0.097-0.584,0.198-1.167,0.297-1.601S44.126,7.904,44.126,7.904z"/>
	</g>
</g>
</svg>
