<?xml version="1.0" encoding="utf-8"?>
<!-- Generator: Adobe Illustrator 16.0.0, SVG Export Plug-In . SVG Version: 6.00 Build 0)  -->
<!DOCTYPE svg PUBLIC "-//W3C//DTD SVG 1.1//EN" "http://www.w3.org/Graphics/SVG/1.1/DTD/svg11.dtd">
<svg version="1.1" id="Layer_1" xmlns="http://www.w3.org/2000/svg" xmlns:xlink="http://www.w3.org/1999/xlink" x="0px" y="0px"
	 width="88.75px" height="86.907px" viewBox="0 0 88.75 86.907" enable-background="new 0 0 88.75 86.907" xml:space="preserve">
<path fill="#B30909" stroke="#B30909" stroke-miterlimit="10" d="M61.596,65.019c-0.5,0.42-1.021,0.801-1.561,1.16
	c0.23,0.381,0.449,0.739,0.67,1.1c1.13,1.82,2.13,3.5,2.99,4.962c0.729,1.229,1.369,2.309,1.91,3.209
	c1.109,1.85,1.74,2.971,1.81,3.11c-0.09-0.121-0.86-1.16-2.13-2.899c-0.61-0.861-1.34-1.871-2.17-3.031
	c-1.01-1.379-2.15-2.959-3.37-4.719c-0.24-0.341-0.49-0.691-0.74-1.052c-0.67,0.431-1.37,0.83-2.08,1.181
	c-0.04,0.03-0.079,0.051-0.12,0.061c-0.8,0.42-1.63,0.789-2.479,1.109c-0.04,0.021-0.091,0.041-0.14,0.051
	c-0.83,0.33-1.69,0.609-2.561,0.84c-0.05,0.02-0.1,0.029-0.15,0.039c-0.859,0.24-1.74,0.422-2.64,0.561
	c-0.05,0.02-0.101,0.031-0.149,0.031c-0.881,0.139-1.781,0.238-2.69,0.289c-0.05,0.01-0.091,0.01-0.14,0.01
	c-0.49,0.031-0.98,0.041-1.48,0.041c-0.41,0-0.82-0.01-1.23-0.031c-0.05,0-0.09,0-0.14-0.01c-0.92-0.039-1.82-0.129-2.71-0.26
	c-0.05-0.01-0.09-0.01-0.13-0.02c-0.9-0.142-1.79-0.32-2.66-0.541c-0.05-0.021-0.09-0.029-0.14-0.039c-0.88-0.23-1.74-0.5-2.58-0.82
	c-0.05-0.01-0.09-0.029-0.13-0.051c-0.85-0.318-1.69-0.68-2.49-1.08c-0.04-0.02-0.08-0.039-0.12-0.068
	c-0.82-0.391-1.61-0.84-2.37-1.33c-0.04-0.021-0.08-0.041-0.12-0.08c-0.77-0.48-1.5-1-2.21-1.57c-0.04-0.01-0.08-0.051-0.12-0.09
	c-0.71-0.551-1.39-1.149-2.04-1.791c-0.03-0.02-0.07-0.049-0.1-0.09c-0.66-0.629-1.28-1.299-1.85-1.99
	c-0.04-0.039-0.07-0.08-0.1-0.119c-0.61-0.721-1.17-1.471-1.7-2.25c-0.36,0.23-0.71,0.459-1.06,0.681
	c-1.78,1.108-3.4,2.131-4.82,3.028c-1.24,0.781-2.33,1.472-3.24,2.041c-1.41,0.869-2.38,1.459-2.82,1.73
	c0.43-0.311,1.36-0.961,2.71-1.9c0.89-0.6,1.95-1.33,3.16-2.16c1.38-0.938,2.96-2.02,4.7-3.211c0.35-0.229,0.7-0.469,1.06-0.709
	c-0.25-0.371-0.49-0.75-0.7-1.141h3.89c0.43,0.621,0.88,1.221,1.37,1.801c0.03,0.039,0.06,0.08,0.11,0.119
	c0.49,0.611,1.03,1.18,1.6,1.73c0.03,0.039,0.07,0.08,0.11,0.109c0.57,0.551,1.16,1.069,1.78,1.551c0.04,0.039,0.08,0.07,0.12,0.09
	c0.61,0.5,1.26,0.949,1.92,1.369c0.05,0.031,0.09,0.061,0.14,0.092c0.66,0.42,1.35,0.809,2.06,1.158
	c0.04,0.021,0.08,0.041,0.12,0.061c0.7,0.35,1.42,0.66,2.16,0.939c0.05,0.021,0.1,0.041,0.15,0.061c0.73,0.27,1.48,0.5,2.24,0.701
	c0.05,0.02,0.1,0.029,0.15,0.039c0.75,0.199,1.52,0.359,2.31,0.48c0.05,0,0.1,0.01,0.16,0.02c0.76,0.109,1.54,0.189,2.33,0.23h0.16
	c0.35,0.02,0.71,0.028,1.07,0.028c0.43,0,0.859-0.01,1.29-0.028c0.05-0.01,0.101-0.01,0.149-0.021
	c0.791-0.041,1.57-0.121,2.34-0.239c0.051-0.011,0.101-0.021,0.15-0.031c0.78-0.119,1.551-0.289,2.301-0.49
	c0.049-0.01,0.1-0.029,0.149-0.049c0.771-0.201,1.511-0.439,2.24-0.721c0.05-0.021,0.101-0.029,0.14-0.062
	c0.74-0.279,1.461-0.601,2.16-0.949c0.051-0.028,0.09-0.051,0.13-0.069c0.58-0.3,1.15-0.619,1.7-0.959
	c-0.91-1.312-1.85-2.691-2.82-4.111c-0.06,0.041-0.13,0.08-0.199,0.121c-0.311,0.18-0.621,0.358-0.94,0.52
	c-0.05,0.029-0.11,0.061-0.16,0.08c-0.5,0.26-1.021,0.49-1.55,0.699c-0.04,0.012-0.07,0.031-0.109,0.041
	c-0.051,0.02-0.101,0.039-0.16,0.061c-0.561,0.219-1.141,0.41-1.721,0.559v0.011c-0.061,0.012-0.119,0.03-0.18,0.041
	c-0.58,0.159-1.17,0.278-1.77,0.381c-0.061,0.01-0.111,0.021-0.17,0.028c-0.591,0.091-1.191,0.15-1.801,0.181
	c-0.061,0.011-0.12,0.011-0.18,0.021c-0.43,0.021-0.86,0.03-1.3,0.021c-0.17,0-0.35-0.013-0.52-0.021c-0.06,0-0.11,0-0.17-0.01
	c-0.37-0.011-0.74-0.039-1.12-0.08c-0.23-0.029-0.46-0.05-0.68-0.091c-0.06-0.01-0.12-0.021-0.17-0.028
	c-0.53-0.08-1.06-0.191-1.57-0.312c-0.07-0.021-0.14-0.028-0.21-0.062c-0.06-0.01-0.12-0.02-0.17-0.039
	c-0.59-0.149-1.17-0.33-1.73-0.541c-0.05-0.02-0.11-0.039-0.16-0.059c-0.29-0.102-0.57-0.221-0.85-0.34
	c-0.28-0.121-0.55-0.25-0.82-0.381c-0.05-0.02-0.1-0.051-0.15-0.07c-0.55-0.279-1.08-0.58-1.59-0.9c-0.05-0.028-0.1-0.059-0.15-0.09
	c-0.34-0.219-0.67-0.449-0.99-0.68c-0.16-0.119-0.33-0.24-0.49-0.379c-0.04-0.031-0.09-0.061-0.14-0.102
	c-0.47-0.379-0.93-0.779-1.37-1.199c-0.04-0.041-0.08-0.08-0.12-0.119c-0.04-0.041-0.07-0.07-0.11-0.111h27.18
	c-0.029,0.031-0.07,0.07-0.109,0.111c-0.431,0.42-0.891,0.828-1.36,1.199c-0.05,0.051-0.091,0.09-0.14,0.119
	c-0.23,0.182-0.461,0.361-0.701,0.521c0.921,1.459,1.811,2.869,2.65,4.229c0.41-0.279,0.811-0.58,1.2-0.898
	c0.05-0.031,0.091-0.061,0.13-0.102c0.62-0.5,1.211-1.021,1.77-1.58c0.041-0.029,0.07-0.059,0.101-0.1
	c0.57-0.55,1.101-1.14,1.601-1.75c0.039-0.039,0.069-0.07,0.1-0.109c0.43-0.529,0.84-1.08,1.23-1.641h3.89
	c-0.261,0.471-0.55,0.938-0.86,1.391c-0.02,0.039-0.04,0.08-0.07,0.119c-0.5,0.76-1.039,1.49-1.619,2.19
	c-0.03,0.039-0.061,0.08-0.09,0.119c-0.58,0.698-1.19,1.369-1.84,2.01c-0.031,0.031-0.061,0.062-0.091,0.091
	c-0.649,0.641-1.33,1.239-2.04,1.811C61.675,64.967,61.635,64.999,61.596,65.019z"/>
<path fill="#B30909" stroke="#B30909" stroke-miterlimit="10" d="M79.505,20.389c-0.13,0.09-1.19,0.82-2.96,2.05
	c-0.97,0.67-2.16,1.48-3.52,2.41c-1.301,0.89-2.75,1.89-4.34,2.97c-0.34,0.23-0.69,0.47-1.051,0.71c0.25,0.38,0.49,0.77,0.711,1.17
	h-3.881c-0.33-0.47-0.67-0.93-1.029-1.37c-0.021-0.04-0.051-0.08-0.09-0.12c-0.5-0.63-1.041-1.24-1.611-1.81
	c-0.029-0.04-0.069-0.08-0.1-0.11c-0.57-0.58-1.17-1.13-1.8-1.63c-0.04-0.04-0.069-0.07-0.11-0.09
	c-0.629-0.52-1.279-1.01-1.959-1.45c-0.041-0.03-0.091-0.06-0.131-0.08c-0.67-0.45-1.369-0.86-2.09-1.23
	c-0.04-0.02-0.09-0.05-0.141-0.07c-0.719-0.37-1.459-0.7-2.219-0.99c-0.041-0.03-0.09-0.04-0.141-0.06
	c-0.75-0.29-1.529-0.54-2.32-0.75c-0.039-0.02-0.09-0.03-0.14-0.04c-0.78-0.21-1.569-0.38-2.38-0.51
	c-0.051-0.01-0.109-0.02-0.16-0.02c-0.79-0.12-1.6-0.21-2.42-0.25h-0.15c-0.359-0.02-0.729-0.03-1.1-0.03
	c-0.45,0-0.9,0.01-1.34,0.04c-0.05,0-0.1,0-0.15,0.01c-0.82,0.05-1.63,0.14-2.43,0.27c-0.05,0-0.1,0.01-0.14,0.03
	c-0.81,0.13-1.61,0.3-2.39,0.53c-0.05,0-0.1,0.021-0.14,0.04c-0.79,0.21-1.55,0.47-2.3,0.77c-0.05,0.01-0.1,0.03-0.15,0.06
	c-0.76,0.3-1.5,0.64-2.21,1.01c-0.05,0.03-0.09,0.05-0.13,0.07c-0.47,0.25-0.92,0.51-1.37,0.79c0.94,1.36,1.92,2.79,2.93,4.27
	c0.03-0.01,0.06-0.03,0.09-0.05c0.24-0.14,0.48-0.27,0.72-0.4c0.05-0.03,0.09-0.05,0.14-0.08c0.55-0.28,1.12-0.54,1.7-0.77
	c0.03-0.02,0.06-0.03,0.09-0.04c0.02-0.01,0.05-0.02,0.07-0.03c0.58-0.23,1.17-0.43,1.78-0.59c0.05-0.02,0.11-0.04,0.16-0.05
	c0.6-0.17,1.21-0.3,1.83-0.4c0.05-0.02,0.11-0.03,0.17-0.03c0.03-0.01,0.07-0.01,0.1-0.02c0.58-0.09,1.17-0.16,1.77-0.19
	c0.06-0.01,0.11-0.01,0.17-0.01c0.44-0.03,0.89-0.04,1.34-0.03c0.17,0,0.35,0.01,0.52,0.02c0.061,0,0.12,0,0.18,0.01
	c0.37,0.02,0.73,0.05,1.1,0.09c0.261,0.03,0.511,0.06,0.761,0.11c0.06,0,0.12,0,0.17,0.02c0.51,0.07,1.01,0.17,1.5,0.29
	c0.11,0.03,0.229,0.06,0.34,0.09c0.06,0.01,0.11,0.02,0.16,0.04c0.61,0.16,1.21,0.35,1.79,0.57c0.05,0.02,0.1,0.04,0.16,0.06
	c0.22,0.09,0.449,0.18,0.67,0.28c0.35,0.15,0.699,0.32,1.04,0.5c0.05,0.02,0.1,0.04,0.149,0.08c0.561,0.28,1.101,0.59,1.621,0.93
	c0.049,0.03,0.09,0.06,0.129,0.1c0.26,0.16,0.51,0.33,0.75,0.51c0.26,0.19,0.51,0.38,0.76,0.59c0.051,0.03,0.091,0.06,0.131,0.11
	c0.4,0.31,0.77,0.65,1.14,1.01h-26.74c0.31-0.32,0.64-0.61,0.98-0.88c0.04-0.05,0.08-0.09,0.13-0.11c0.35-0.31,0.7-0.58,1.07-0.83
	c-0.96-1.52-1.88-2.99-2.75-4.4c-0.55,0.39-1.09,0.8-1.6,1.23c-0.04,0.03-0.08,0.07-0.12,0.11c-0.63,0.51-1.22,1.06-1.78,1.65
	c-0.04,0.03-0.07,0.06-0.1,0.1c-0.56,0.58-1.09,1.19-1.59,1.83c-0.04,0.04-0.07,0.08-0.09,0.12c-0.31,0.38-0.6,0.78-0.88,1.18h-3.88
	c0.16-0.29,0.33-0.58,0.51-0.86c0.02-0.04,0.05-0.08,0.08-0.12c0.49-0.78,1.02-1.54,1.59-2.26v-0.01c0.03-0.04,0.06-0.07,0.09-0.11
	c0.57-0.73,1.18-1.42,1.84-2.09c0.02-0.03,0.05-0.07,0.09-0.1c0.64-0.67,1.32-1.3,2.03-1.9c0.04-0.02,0.07-0.05,0.11-0.09
	c0.63-0.52,1.29-1.02,1.97-1.48c-0.23-0.37-0.45-0.73-0.67-1.09c-0.98-1.6-1.87-3.08-2.66-4.41c-0.87-1.46-1.62-2.73-2.24-3.76
	c-1.11-1.86-1.74-2.97-1.81-3.11c0.09,0.12,0.86,1.16,2.13,2.9c0.7,0.98,1.57,2.18,2.56,3.56c0.9,1.25,1.91,2.66,2.98,4.19
	c0.24,0.34,0.48,0.69,0.73,1.04c0.57-0.36,1.16-0.7,1.76-1.01c0.04-0.03,0.08-0.05,0.12-0.06c0.82-0.44,1.66-0.83,2.53-1.17
	c0.04-0.02,0.09-0.04,0.14-0.05c0.86-0.35,1.74-0.65,2.64-0.89c0.04-0.02,0.08-0.03,0.13-0.04c0.89-0.25,1.81-0.45,2.74-0.6
	c0.04-0.02,0.09-0.02,0.13-0.03c0.91-0.15,1.84-0.25,2.78-0.3c0.05-0.01,0.09-0.02,0.14-0.01c0.51-0.04,1.02-0.05,1.53-0.05
	c0.42,0,0.84,0.01,1.26,0.04c0.051-0.01,0.09-0.01,0.141,0c0.939,0.04,1.869,0.14,2.779,0.28c0.051,0,0.1,0.01,0.141,0.02
	c0.93,0.14,1.85,0.34,2.74,0.58c0.039,0.01,0.09,0.02,0.129,0.03c0.91,0.24,1.801,0.53,2.66,0.87c0.041,0.01,0.08,0.03,0.121,0.05
	c0.879,0.33,1.719,0.71,2.549,1.14c0.041,0.02,0.09,0.04,0.131,0.07c0.83,0.42,1.629,0.89,2.399,1.4c0.04,0.02,0.08,0.04,0.12,0.08
	c0.78,0.5,1.53,1.06,2.25,1.64c0.04,0.03,0.07,0.06,0.109,0.09c0.721,0.59,1.41,1.21,2.061,1.88l0.09,0.09
	c0.65,0.66,1.271,1.35,1.85,2.08c0.031,0.03,0.061,0.07,0.08,0.11c0.471,0.57,0.91,1.17,1.33,1.79c0.36-0.23,0.711-0.46,1.061-0.68
	c1.63-1.02,3.12-1.96,4.45-2.81c1.399-0.87,2.62-1.63,3.61-2.26C78.275,21.148,79.375,20.469,79.505,20.389z"/>
<g>
	<path fill="#B30909" d="M16.615,54.167c-1.02-1.235-1.567-3.203-1.638-5.899l4.144-0.692c0.019,1.547,0.187,2.659,0.503,3.334
		c0.316,0.672,0.789,1.008,1.421,1.008c0.813,0,1.22-0.59,1.22-1.778c0-0.946-0.194-1.763-0.584-2.445
		c-0.387-0.685-0.997-1.419-1.829-2.202l-1.896-1.842c-0.94-0.886-1.667-1.825-2.182-2.82c-0.514-0.998-0.772-2.18-0.772-3.548
		c0-2.052,0.545-3.631,1.64-4.737c1.091-1.107,2.595-1.66,4.511-1.66c2.076,0,3.489,0.675,4.239,2.021
		c0.75,1.348,1.151,2.987,1.206,4.92l-4.172,0.574c-0.037-1.269-0.14-2.178-0.313-2.733c-0.172-0.553-0.545-0.829-1.125-0.829
		c-0.414,0-0.736,0.196-0.961,0.588c-0.225,0.393-0.338,0.831-0.338,1.313c0,0.826,0.166,1.52,0.5,2.083
		c0.334,0.562,0.872,1.207,1.611,1.93l1.817,1.781c1.084,1.026,1.924,2.111,2.52,3.259c0.596,1.146,0.894,2.504,0.894,4.076
		c0,1.146-0.239,2.186-0.718,3.123c-0.48,0.934-1.151,1.676-2.019,2.217c-0.868,0.545-1.869,0.816-3.006,0.816
		C19.193,56.024,17.634,55.405,16.615,54.167z"/>
	<path fill="#B30909" d="M37.194,31.216h-5.529l-4.144,24.445h4.58l0.759-5.16h3.224l0.729,5.16h4.472L37.194,31.216z
		 M33.292,47.271l1.166-9.537l1.166,9.537H33.292z"/>
	<path fill="#B30909" d="M44.401,31.215h4.85v9.899h3.388v-9.899h4.877v24.446h-4.877V44.976h-3.388v10.685h-4.85V31.215z"/>
	<path fill="#B30909" d="M62.066,53.987c-1.012-1.359-1.516-3.365-1.516-6.021v-9.083c0-2.657,0.504-4.654,1.516-5.992
		c1.013-1.338,2.701-2.006,5.068-2.006c2.385,0,4.086,0.675,5.107,2.021c1.02,1.348,1.531,3.341,1.531,5.978v9.083
		c0,2.656-0.512,4.664-1.531,6.022c-1.021,1.354-2.723,2.037-5.107,2.037C64.768,56.024,63.079,55.342,62.066,53.987z M68.49,51.42
		c0.217-0.512,0.324-1.211,0.324-2.098v-11.77c0-0.906-0.107-1.609-0.324-2.113c-0.217-0.502-0.67-0.755-1.354-0.755
		c-0.652,0-1.084,0.257-1.303,0.771c-0.216,0.514-0.326,1.212-0.326,2.097v11.77c0,0.885,0.1,1.586,0.301,2.098
		c0.196,0.514,0.641,0.771,1.328,0.771C67.82,52.19,68.273,51.934,68.49,51.42z"/>
</g>
</svg>
