<?xml version="1.0" encoding="utf-8"?>
<!-- Generator: Adobe Illustrator 16.0.0, SVG Export Plug-In . SVG Version: 6.00 Build 0)  -->
<!DOCTYPE svg PUBLIC "-//W3C//DTD SVG 1.1//EN" "http://www.w3.org/Graphics/SVG/1.1/DTD/svg11.dtd">
<svg version="1.1" id="Layer_1" xmlns="http://www.w3.org/2000/svg" xmlns:xlink="http://www.w3.org/1999/xlink" x="0px" y="0px"
	 width="100px" height="100px" viewBox="0 0 100 100" enable-background="new 0 0 100 100" xml:space="preserve">
<g>
	<path fill="#9B1400" d="M80.834,28.388l-4.318,3.46h-3.63c-0.282-0.388-0.572-0.769-0.873-1.146
		c-0.781-0.975-1.614-1.893-2.501-2.75c-0.985-0.956-2.032-1.839-3.142-2.645c-0.941-0.688-1.929-1.32-2.956-1.895
		c-1.148-0.642-2.329-1.205-3.544-1.681c-1.273-0.503-2.579-0.916-3.917-1.235c-1.197-0.286-2.419-0.498-3.661-0.636
		c-1.085-0.121-2.183-0.181-3.265-0.181v-1.432h-0.001l-0.001,1.432c-0.148,0-0.298,0-0.446,0.004
		c-1.377,0.02-2.744,0.139-4.09,0.35c-2.458,0.386-4.852,1.083-7.125,2.072c-1.254,0.544-2.47,1.178-3.642,1.896
		c-1.484,0.908-2.894,1.954-4.213,3.127c-0.546,0.485-1.071,0.99-1.576,1.511c-0.958,0.989-1.841,2.039-2.644,3.142
		c-0.017,0.022-0.034,0.044-0.048,0.066h-9.762l2.306-4.192l4.977,2.735c1.015-1.427,2.143-2.765,3.369-4l-3.553-4.436l5.791-4.639
		l3.553,4.436c1.475-0.926,3.025-1.734,4.64-2.414l-4.131-14.22l7.125-2.07l4.129,14.216c1.702-0.288,3.442-0.44,5.211-0.446
		l0.624-5.647l7.376,0.816l-0.623,5.646c1.725,0.392,3.39,0.919,4.987,1.572l2.734-4.974l6.502,3.576l-2.735,4.975
		c1.427,1.016,2.765,2.144,4.001,3.369l4.435-3.553L80.834,28.388z"/>
	<path fill="#9B1400" d="M67.21,31.848H30.917c1.637-1.721,3.513-3.204,5.566-4.4c0.685-0.399,1.39-0.766,2.113-1.1
		c2.229-1.029,4.627-1.737,7.125-2.072c0.782-0.104,1.573-0.173,2.374-0.203c1.222-0.045,2.464-0.002,3.717,0.136
		c1.253,0.139,2.475,0.367,3.659,0.68c0.772,0.204,1.529,0.443,2.27,0.715c2.365,0.872,4.55,2.086,6.501,3.578
		c0.632,0.482,1.24,0.994,1.821,1.533C66.457,31.08,66.84,31.458,67.21,31.848z"/>
	<path fill="#9B1400" d="M75.367,67.781c-1.016,1.427-2.144,2.765-3.369,4.001l3.553,4.434l-5.789,4.641l-3.554-4.435
		c-1.474,0.924-3.025,1.733-4.64,2.412l4.131,14.22l-7.124,2.069l-4.13-14.217c-1.703,0.288-3.443,0.44-5.212,0.447l-0.624,5.646
		l-7.375-0.813l0.623-5.648c-1.725-0.394-3.391-0.92-4.988-1.571l-2.734,4.973l-6.502-3.573l2.736-4.977
		c-1.426-1.016-2.764-2.144-4-3.37l-4.435,3.554l-4.64-5.792l4.317-3.458h3.631c0.281,0.388,0.572,0.771,0.874,1.146
		c0.78,0.975,1.614,1.892,2.5,2.752c0.985,0.955,2.034,1.838,3.141,2.644c0.944,0.688,1.931,1.32,2.958,1.896
		c1.148,0.642,2.33,1.203,3.542,1.681c1.273,0.503,2.58,0.914,3.918,1.234c1.197,0.286,2.419,0.498,3.662,0.636
		c1.084,0.12,2.184,0.18,3.268,0.18c0.148,0,0.296,0,0.445-0.003c1.377-0.021,2.743-0.139,4.09-0.35
		c2.458-0.387,4.851-1.083,7.125-2.071c1.255-0.545,2.47-1.178,3.643-1.895c1.483-0.91,2.893-1.954,4.213-3.13
		c0.547-0.485,1.072-0.99,1.577-1.512c0.958-0.989,1.841-2.037,2.642-3.14c0.017-0.022,0.034-0.046,0.051-0.068h9.759l-2.305,4.194
		L75.367,67.781z"/>
	<path fill="#9B1400" d="M67.21,66.323c-1.636,1.722-3.513,3.204-5.564,4.4c-0.686,0.399-1.39,0.766-2.112,1.102
		c-2.229,1.026-4.627,1.735-7.126,2.07c-0.783,0.105-1.573,0.172-2.374,0.201c-1.224,0.048-2.464,0.005-3.717-0.135
		s-2.475-0.366-3.658-0.679c-0.774-0.205-1.532-0.443-2.271-0.717c-2.365-0.87-4.55-2.085-6.501-3.575
		c-0.631-0.483-1.24-0.994-1.821-1.535c-0.394-0.365-0.777-0.741-1.147-1.133H67.21z"/>
	<g>
		<path fill="#9B1400" d="M14.195,61.005c-1.278-1.391-1.962-3.6-2.052-6.63l5.189-0.781c0.022,1.742,0.231,2.991,0.627,3.748
			c0.396,0.759,0.989,1.138,1.781,1.138c1.017,0,1.526-0.667,1.526-2.003c0-1.062-0.244-1.979-0.729-2.747
			c-0.487-0.769-1.25-1.594-2.29-2.476l-2.375-2.07c-1.176-0.995-2.086-2.051-2.731-3.171c-0.644-1.119-0.966-2.448-0.966-3.985
			c0-2.307,0.684-4.082,2.053-5.325c1.367-1.244,3.25-1.866,5.647-1.866c2.6,0,4.37,0.758,5.308,2.273
			c0.938,1.515,1.442,3.358,1.51,5.529l-5.224,0.645c-0.045-1.424-0.175-2.447-0.39-3.07c-0.215-0.621-0.684-0.932-1.407-0.932
			c-0.521,0-0.921,0.22-1.205,0.661c-0.283,0.441-0.424,0.933-0.424,1.476c0,0.927,0.209,1.708,0.627,2.34
			c0.418,0.634,1.091,1.357,2.019,2.171l2.272,2.001c1.357,1.154,2.409,2.375,3.155,3.665c0.746,1.288,1.12,2.814,1.12,4.577
			c0,1.29-0.3,2.459-0.899,3.512c-0.599,1.052-1.441,1.882-2.527,2.493c-1.085,0.611-2.34,0.917-3.765,0.917
			C17.423,63.093,15.473,62.396,14.195,61.005z"/>
		<path fill="#9B1400" d="M33.037,35.21h6.919l5.123,27.475h-5.597l-0.916-5.801h-4.037l-0.949,5.801h-5.732L33.037,35.21z
			 M37.99,53.254l-1.458-10.718l-1.459,10.718H37.99z"/>
		<path fill="#9B1400" d="M48.979,35.21h6.072v11.125h4.239V35.21h6.104v27.475h-6.104V50.677h-4.239v12.008h-6.072V35.21z"/>
		<path fill="#9B1400" d="M71.094,60.803c-1.267-1.526-1.899-3.782-1.899-6.768v-10.21c0-2.985,0.633-5.229,1.899-6.733
			c1.266-1.503,3.381-2.256,6.344-2.256c2.984,0,5.115,0.758,6.394,2.273c1.277,1.515,1.916,3.753,1.916,6.716v10.21
			c0,2.985-0.639,5.241-1.916,6.768c-1.278,1.526-3.409,2.29-6.394,2.29C74.475,63.093,72.359,62.329,71.094,60.803z M79.134,57.918
			c0.271-0.576,0.406-1.36,0.406-2.356V42.333c0-1.018-0.135-1.809-0.406-2.374c-0.271-0.565-0.838-0.848-1.696-0.848
			c-0.815,0-1.357,0.288-1.629,0.865c-0.271,0.576-0.407,1.362-0.407,2.357v13.229c0,0.996,0.125,1.78,0.374,2.356
			c0.248,0.576,0.802,0.865,1.662,0.865C78.296,58.783,78.863,58.494,79.134,57.918z"/>
	</g>
</g>
</svg>
